<?xml version="1.0" encoding="UTF-8" standalone="no"?>
<!-- Created with Inkscape (http://www.inkscape.org/) -->

<svg
   id="svg2"
   sodipodi:docname="Mercurio.svg"
   viewBox="0 0 744.09 1052.4"
   sodipodi:version="0.32"
   inkscape:version="1.2.1 (9c6d41e410, 2022-07-14)"
   version="1.1"
   inkscape:export-filename="Mercurio.png"
   inkscape:export-xdpi="96"
   inkscape:export-ydpi="96"
   xmlns:inkscape="http://www.inkscape.org/namespaces/inkscape"
   xmlns:sodipodi="http://sodipodi.sourceforge.net/DTD/sodipodi-0.dtd"
   xmlns:xlink="http://www.w3.org/1999/xlink"
   xmlns="http://www.w3.org/2000/svg"
   xmlns:svg="http://www.w3.org/2000/svg"
   xmlns:rdf="http://www.w3.org/1999/02/22-rdf-syntax-ns#"
   xmlns:cc="http://creativecommons.org/ns#"
   xmlns:dc="http://purl.org/dc/elements/1.1/">
  <defs
     id="defs4">
    <linearGradient
       inkscape:collect="always"
       id="linearGradient966">
      <stop
         style="stop-color:#4d4d4d;stop-opacity:0;"
         offset="0.80516434"
         id="stop964" />
      <stop
         style="stop-color:#4d4d4d;stop-opacity:1;"
         offset="1"
         id="stop962" />
    </linearGradient>
    <linearGradient
       id="linearGradient12566">
      <stop
         id="stop12568"
         style="stop-color:#5f4433"
         offset="0" />
      <stop
         id="stop12570"
         style="stop-color:#5f4433;stop-opacity:0"
         offset="1" />
    </linearGradient>
    <linearGradient
       id="linearGradient3579">
      <stop
         id="stop3581"
         style="stop-color:#4c362c"
         offset="0" />
      <stop
         id="stop3583"
         style="stop-color:#93654c;stop-opacity:.51020"
         offset="1" />
    </linearGradient>
    <radialGradient
       id="radialGradient3585"
       xlink:href="#linearGradient3579"
       gradientUnits="userSpaceOnUse"
       cy="367.54"
       cx="448.98"
       gradientTransform="matrix(1.9133753,-1.0388993,0.88042305,1.6165989,-1106.9778,-256.26458)"
       r="110.61"
       inkscape:collect="always" />
    <radialGradient
       id="radialGradient8809"
       xlink:href="#linearGradient3579"
       gradientUnits="userSpaceOnUse"
       cy="403.62"
       cx="502.38"
       gradientTransform="matrix(0.6743033,-0.25447983,0.30047153,0.79377948,-250.44068,-318.22454)"
       r="110.61"
       inkscape:collect="always" />
    <radialGradient
       id="radialGradient12564"
       xlink:href="#linearGradient12566"
       gradientUnits="userSpaceOnUse"
       cy="711.78"
       cx="423.37"
       gradientTransform="matrix(1.2428677,2.5811983e-8,-1.2925424e-8,0.6119296,-476.1699,-230.8046)"
       r="207.5"
       inkscape:collect="always" />
    <radialGradient
       id="radialGradient16998"
       xlink:href="#linearGradient12566"
       gradientUnits="userSpaceOnUse"
       cy="498.18"
       cx="581.94"
       gradientTransform="matrix(0.30765232,0.05032097,-0.06360458,0.38768974,99.745555,-148.37465)"
       r="207.5"
       inkscape:collect="always" />
    <radialGradient
       id="radialGradient17005"
       xlink:href="#linearGradient12566"
       gradientUnits="userSpaceOnUse"
       cy="695.44"
       cx="223.64"
       gradientTransform="matrix(0.35364143,-0.11716992,0.15286972,0.4600097,-383.62402,-98.944682)"
       r="207.5"
       inkscape:collect="always" />
    <radialGradient
       id="radialGradient30351"
       xlink:href="#linearGradient3579"
       gradientUnits="userSpaceOnUse"
       cy="280.67"
       cx="474.41"
       gradientTransform="matrix(0.44155354,-0.12663992,0.1568457,0.54521964,-99.704166,-309.10454)"
       r="110.61"
       inkscape:collect="always" />
    <linearGradient
       id="linearGradient32712"
       y2="301.31"
       gradientUnits="userSpaceOnUse"
       y1="749.88"
       x2="350.71"
       x1="445"
       inkscape:collect="always"
       gradientTransform="matrix(1.001505,0,0,0.99999934,-373.98634,-496.07442)">
      <stop
         id="stop32706"
         style="stop-color:#9f673a"
         offset="0" />
      <stop
         id="stop32708"
         style="stop-color:#9f673a;stop-opacity:.36735"
         offset="1" />
    </linearGradient>
    <radialGradient
       inkscape:collect="always"
       xlink:href="#linearGradient966"
       id="radialGradient968"
       cx="0.14749682"
       cy="0.57621694"
       fx="0.14749682"
       fy="0.57621694"
       r="288.2905"
       gradientUnits="userSpaceOnUse" />
  </defs>
  <sodipodi:namedview
     id="base"
     bordercolor="#666666"
     inkscape:pageshadow="2"
     inkscape:window-width="1920"
     pagecolor="#ffffff"
     inkscape:zoom="1.8304237"
     inkscape:window-x="-9"
     borderopacity="1.0"
     inkscape:current-layer="layer2"
     inkscape:cx="356.20169"
     inkscape:cy="3.5510904"
     inkscape:window-y="-9"
     inkscape:window-height="1001"
     showborder="false"
     inkscape:pageopacity="0.0"
     inkscape:document-units="px"
     inkscape:showpageshadow="2"
     inkscape:pagecheckerboard="0"
     inkscape:deskcolor="#d1d1d1"
     showgrid="false"
     inkscape:window-maximized="1">
    <inkscape:grid
       type="xygrid"
       id="grid897" />
  </sodipodi:namedview>
  <g
     inkscape:groupmode="layer"
     id="layer2"
     inkscape:label="Layer 2">
    <g
       id="g4045"
       transform="matrix(1.0000004,0,0,1.0010996,1.2518014e-4,0.31511648)">
      <ellipse
         id="path1394"
         style="color:#000000;fill:#be7539;fill-rule:evenodd;stroke-width:0.995831"
         cx="0.14732666"
         cy="1.2858474"
         rx="288.29037"
         ry="287.86221" />
      <path
         id="path31249"
         sodipodi:nodetypes="ccccccccccccccccccccccccc"
         style="color:#000000;fill:url(#linearGradient32712);fill-rule:evenodd;stroke-width:1.00075"
         d="m 281.99944,62.445211 c -62.07328,268.309819 -414.40274,307.609799 -537.9484,69.999959 14.79223,-1.85 33.83084,19.22998 40.72119,-3.67 13.11972,-5.18 19.60947,37.24997 30.28551,8.84999 13.5704,-11.24999 20.15028,-26.45998 25.56843,-42.76997 23.10472,-3.879997 55.7037,4.249997 64.376738,-25.709983 21.372117,-14.61999 21.06165,-43.989971 24.386647,-67.2099557 1.191791,-25.3399833 2.503762,-54.5599643 20.17031,-73.8599513 18.457737,-9.039994 45.5384327,-42.11997 18.397647,-56.06996 -22.043125,-15.93999 -50.696183,-6.38 -74.932602,-16.75999 -27.60148,-8.14 -62.84444,-12.79999 -85.3082,9.60999 -12.60895,11.56999 -15.02257,-6.06999 -4.9274,-28.72998 13.96098,-18.32999 19.13876,-63.52996 50.7062,-51.26997 24.41669,-6.88999 52.689174,-6.58999 76.585083,-6.58999 2.834259,28.77998 49.544452,21.85998 46.359667,-6.75 7.641483,-19.50998 37.716678,4.54 54.952579,0.03 30.035135,6.58 40.430757,-34.04997 63.535477,-36.15997 21.281984,12.40999 46.920514,19.10998 64.747294,36.61997 17.47627,7.85 18.70812,30.81998 -4.29645,29.99998 -31.46729,11.15 18.93846,50.62997 32.50885,26.06999 10.02507,-11.46 21.28198,-21.83999 30.70614,-3.67 21.35209,17.60999 17.10571,48.22997 16.3646,72.88995 -7.15075,28.949981 -5.77869,60.279961 8.50277,86.969943 13.67055,20.4699865 20.01007,42.339972 20.24042,66.709956 7.321,3.759997 17.77671,-0.39 18.2975,11.469992 z" />
      <path
         id="path27387"
         style="fill:#9f673a;fill-rule:evenodd;stroke-width:1.00075"
         d="m 8.0177122,-72.994699 h -9.5243126 c -14.0110546,3.989997 -32.1282806,6.229996 -40.3806816,20.019987 -3.284936,16.149989 -24.086195,20.999986 -19.869859,39.319974 3.715583,6.5599953 7.321001,11.2199922 -1.05158,16.3699888 -5.989,13.4799912 -9.123711,28.1499812 -8.582898,43.0399712 1.221836,13.429992 11.988015,23.659985 17.0356,35.819977 6.459707,12.829991 10.625968,28.389981 22.603968,37.279971 15.733643,4.11 27.1708303,-9.98999 42.624052,-8.65999 8.683049,-8.44999 38.207416,-13.379991 52.228486,-17.479989 15.613463,5.129997 35.343112,4.329998 46.419753,-9.319993 18.48779,-6.749996 146.21973,-58.199962 161.13214,-54.359965 17.75669,0.35 -5.328,-35.1599764 -7.05059,-47.749968 -7.26091,-11.669992 0.79119,19.56998703 -4.75715,2.799998 -1.43215,-17.149989 -6.83026,17.4599886 -7.21084,-0.23 3.7256,-16.559989 -6.82025,-29.56998 -11.58741,-44.40997 -1.0015,-8.189995 6.49977,-31.42998 -1.74262,-33.259978 -4.69706,3.469997 -4.95745,25.719983 -8.56287,11.669992 -5.989,-10.069994 39.26902,-87.789947 -33.18987,-100.389937 -33.09974,35.72998 -3.76566,27.36998 -13.16979,52.79997 -4.69706,12.71999 -13.71061,3.7 -21.08168,6.26999 10.5158,4.71 -1.65249,53.849969 0.21031,58.589965 16.7652,5.629997 13.01957,22.489986 18.87837,35.719977 8.5829,2.119998 9.35406,6.609995 0.71107,9.679993 1.96295,8.279995 -9.76467,6.819996 -6.01904,16.1999898 -8.75316,5.2999965 -2.53381,-17.4099888 -7.90188,-22.4999848 -4.13621,-10.529993 -7.27092,10.349993 -2.1332,13.539991 7.25089,14.9499898 -17.74667,7.4299948 -11.65752,20.3099863 10.30548,10.0399937 -8.60293,20.2399867 -13.31,6.7799957 -4.69706,-11.6699925 -11.79773,-1.229999 -12.56889,4.829997 -4.79721,-7.809995 -27.14079,-16.5799895 -18.00706,0.429999 4.02605,9.419994 -12.929431,10.119994 -6.62996,-0.969999 -10.375596,-8.789994 -7.21084,0.4 -5.768673,7.029995 C 87.807616,22.975237 79.635335,3.2852504 69.6303,8.2552471 74.878186,26.405235 50.501554,31.825232 41.357814,18.86524 32.194043,12.745244 23.761371,-0.68474696 37.401869,-7.0047428 c 5.989,-10.3999932 7.341032,-23.6699842 3.725598,-33.8799772 17.01557,-7.199996 -12.008044,-10.039994 -4.626953,-22.599986 0.721084,-9.099994 -11.497277,-7.079995 -12.899384,-14.98999 -7.070625,-2.359998 -9.694568,6.509996 -15.5834178,5.479997 z M 171.83389,-37.284723 c 0,-3.409998 3.4652,5.979996 4.29645,9.289994 0.47071,1.899999 1.42214,3.749998 1.42214,5.709996 0,2.529999 -3.9259,-3.209998 -5.7186,-4.999996 -2.56385,-2.559999 -2.83425,-5.279997 1e-5,-9.999994 z M -1.9973378,167.00514 c -4.1462307,3.15 -10.9164042,1.96 -13.9309342,6.35 1.672513,7.46999 -8.993515,5.62999 -8.92341,12.63999 -1.92289,5.73 1.782679,14.16999 -5.758654,14.93999 -5.678533,3.32 -16.695088,1.51 -20.851334,-3.18 -4.576878,-3.03 -10.796224,-2.95 -14.311506,1.72 -5.678534,2.95 -11.89788,-1.61 -16.89539,-4.21 -3.605418,-3.22999 -7.381091,-6.18999 -11.18681,-9.14999 -4.466713,-5.49 -12.208344,-5.72 -18.307514,-8.39999 -7.24088,-1.01 -7.50127,-9.52 -10.55586,-14.58 -3.15474,-5.97999 -5.95896,-12.08999 -9.37409,-17.97998 -3.84578,-6.14 -1.332,-15.47999 5.61845,-18.14999 4.66701,-2.86 10.81625,-5.75 15.98402,-2.34 5.59841,2.37 96.995755,37.60998 103.4855072,40.18997 1.612423,0.84 3.3249965,1.47 5.007525,2.15 z M -160.80599,-237.28459 c 14.79223,-10.11999 31.06669,-19.16999 49.53444,-26.77998 2.55384,3.44999 12.839296,-1.04 17.546369,-1.2 6.539828,-3.96 13.790724,-5.45 21.382132,-5.1 8.342537,0.73 -4.496757,3.49 -6.950445,3.6 -7.280941,0.96 -14.712108,4.18 -19.889889,9.29999 -0.791189,8.77 9.694568,2.98 14.08116,1.85 4.106171,-1.31 12.999535,-3.92 9.334027,3.87 -3.575373,7.88999 -14.091175,7.99999 -21.111726,11.31999 -10.716108,3.56 -21.462248,7.61 -31.056668,13.59999 -6.62996,5.6 1.36205,9.09 6.9204,7.37 9.1838,-0.86 18.41767,-0.56 27.611491,-0.82 5.588398,-1.31 14.892379,-10.95999 18.768204,-2.75 -3.465208,9.15999 8.602927,0.75 9.564372,4.97 -3.485237,5.79999 -3.525297,12.86999 4.066111,15.06999 6.209331,3.60999 13.239896,5.08999 20.380626,4.26999 10.375592,-0.09 -0.981475,10.08 2.123191,14.80999 3.224846,2.9 11.256916,8.64 3.234861,11.32 -6.459707,2.14 -15.433192,-1.31 -19.609468,5.64999 5.137721,6.73 -7.240881,6.82 -11.527322,8.9 -8.272432,2.24 -15.96399,-2.55 -22.213381,-7.38 -8.653003,-4.53 -18.627995,-5.23999 -28.222415,-4.7 -8.04208,0.1 -15.83379,2.53 -23.89591,2.14 -8.28244,1.14 -16.89538,2.44 -24.04613,7.12 -7.77168,2.48 -14.62197,8.29999 -23.25495,7.13999 -5.99901,-2.08999 2.1933,-11.93999 3.6555,-15.99999 3.18478,-7.79999 9.12371,-14.07999 12.21836,-21.85998 1.64247,-6.37 8.61294,-9.39999 11.5774,-15.08999 1.62243,-6.61 5.01754,-12.71999 5.84878,-19.51999 0.31047,-3.85 -3.42514,-8.56999 -6.06912,-11.09999 z m 67.952119,35.71998 c 2.473717,1.46999 2.513777,4.77999 4.506772,6.66999 1.792694,1.32 1.662498,3.62 -0.891339,3.16 -5.448188,0.8 -11.196822,0.79 -16.214362,3.36 -3.91589,1.75 -7.90188,3.42999 -12.12823,4.26999 -5.48825,1.48 -11.2469,2.39 -16.91542,1.58 -2.04307,0.71 -5.96897,-0.8 -3.94593,-3.30999 2.31348,-3.58 6.77017,-4.93 10.8463,-4.93 3.64548,-0.1 7.4512,0.04 10.83628,-1.53 3.21484,-0.83 6.77018,-0.84 9.54435,-2.9 4.5268,-2.65 9.163768,-5.32 14.361579,-6.36999 z m 142.363935,-80.71995 c 40.130306,7.27999 75.092846,20.63999 112.759446,45.44997 -3.74563,-3.41 -13.03959,6.97999 -5.19781,7.94999 6.10918,1.47 11.21686,5.16 17.00556,7.38 5.71859,0.9 6.1893,9.68999 -0.81122,7.78999 -6.66001,1.51 -3.46521,9.54 -2.47372,13.05 -4.22635,4.51999 -10.38561,-3.66 -15.42318,0.06 -4.657,2.05 -11.94795,1.76 -11.67755,8.68 0.0301,4.68 -1.47221,9.29999 -7.01053,7.16999 -6.13923,-0.63 -12.5088,-2.84999 -17.18583,-6.92999 -4.21633,-4.05 -8.37258,-8.5 -13.61045,-10.92999 -4.00602,-3.53 -7.641482,-7.71 -13.039594,-9.21 -5.548338,-3.27 -12.238391,-4.21999 -17.125736,-8.54999 -4.166261,-2.25 -13.00955,-8.26 -5.598413,-12.19999 5.778684,-2 13.129731,-8.73 4.99751,-13.46 -2.493747,-5.13999 10.245396,-3.03999 8.92341,-7.02999 -4.606923,-3.65 -11.597428,-4.72 -13.630483,-11.23999 -3.385087,-5.62 -9.394117,-9.12 -15.473253,-11.19 -2.18328,-1.58999 -5.147735,-3.97999 -5.428157,-6.78999 z" />
      <path
         id="path9580"
         style="fill:#cc8044;fill-rule:evenodd;stroke-width:1.00075"
         d="m 206.17549,-12.994739 c -11.89788,-2.119998 -18.20736,15.0699902 -8.61294,22.6099852 -5.51829,8.3799948 -7.34103,-16.4899891 -10.70609,-1.1799992 8.15225,5.739996 4.67703,13.299991 -2.17327,4.889997 -12.2484,-1.859999 -2.20331,23.269984 -18.72814,18.529988 5.62846,9.099994 9.55436,22.599985 -7.31099,19.009987 -14.81225,1.849999 -10.1152,-19.239987 -22.57392,-19.579987 -8.46272,-10.759993 -18.80826,4.929997 -27.45125,5.559996 1.29194,9.329994 -8.28245,8.059995 -0.15023,16.519989 -16.975506,1.329999 8.61295,31.10998 -12.458719,28.639981 C 85.023432,99.415187 75.6193,71.055206 89.139617,64.86521 80.907246,55.355216 58.533624,68.045208 48.338303,55.905216 40.145993,49.00522 17.421844,32.695231 34.817986,26.085235 37.041327,8.545247 18.593605,3.2552504 11.843461,-8.224742 c 4.216336,-11.869992 -0.540812,-14.059991 -10.97649455,-9.769994 -15.42317745,3.169998 -30.42572145,5.009997 -46.51990745,5.219997 -12.939444,0.44 -15.202846,12.64999167 -13.139745,17.6299884 -14.101191,5.2799966 -0.04006,22.8499846 -11.757669,29.6999806 5.918894,20.029987 -19.329047,24.959983 -20.360597,41.949972 -5.828759,7.129995 -7.491257,16.02999 -9.674538,1.369999 -1.34202,-14.39999 -5.62846,11.479993 -9.06362,14.559991 -10.92642,0.529999 -18.57792,20.389988 -31.277,7.119995 -9.05361,-7.309995 -22.08319,-7.759995 -31.52738,-12.919992 0.65098,9.499994 12.41866,15.029995 0.26039,21.759985 -6.49977,22.28999 21.8228,11.36999 32.10825,18.92999 10.2454,-8.58 30.26548,-0.12 33.51036,11.99999 -0.49074,13.24999 14.011055,20.54999 20.98153,8.41 2.163251,8.04999 8.11219,9.86999 10.495772,2.70999 11.397127,13.22999 29.634533,6.44 44.486852,10.13 9.854809,8.14999 37.4162271,-1.95 36.2544813,13.57999 -8.0320701,5.96999 -7.7716788,16.81999 -21.0516353,13.71999 -5.628458,10.71999 17.7767139,10.09999 24.2764814,6.12999 7.3510466,3.24 -17.7266385,5.47 -1.8728144,10.1 8.322507,19.07999 17.336052,-15.81999 9.143741,-23.29999 -1.141716,-16.75999 28.733178,-9.02999 40.811328,-13.87999 12.689069,-2.74 29.354112,-1.78 38.467807,5.97 -3.665508,11.57999 3.505268,26.17998 16.414667,15.12999 14.82227,-4.83 15.00255,-22.58999 31.42723,-25.91998 14.27144,-4.91 22.02309,-18.79999 31.57745,-28.93999 11.35707,-11.56999 12.53884,-27.52998 18.46775,-41.949968 12.89939,-12.089992 11.45722,23.409988 24.82731,5.159997 3.8558,-12.569992 -2.52379,-26.859982 0.2003,-39.369974 -7.21083,-7.179995 5.14774,-25.779983 6.71009,-7.919995 -0.72109,7.669995 -0.28043,41.179973 9.27393,22.789985 1.28193,-15.34999 3.86581,-30.849979 9.48425,-45.37997 4.17628,-6.939995 3.29496,-38.709974 -4.00602,-17.3499884 -0.51076,-1.3699991 1.12169,-21.8699856 -6.07913,-15.25999 2.16325,7.569995 1.39209,25.8299834 -4.57688,9.3199939 -4.36656,-12.8199916 -6.82025,-0.6099996 -4.30647,6.079996 -7.31099,0.1499999 -3.29495,-18.5499878 -13.04961,-10.11999336 6.28945,3.23999786 9.67454,13.72999086 0.56084,6.31999586 -9.32401,-8.9199941 9.73463,-18.389988 -1.82274,-27.939982 -2.25338,-17.969988 -3.82575,6.799996 0.77116,11.949993 -2.30346,2.8899976 -4.5268,-0.24 -5.11769,-2.489999 z M 26.61566,84.145197 C 14.777871,87.345195 15.148428,121.16517 0.68669555,104.57518 c -11.29697655,-2.63999 -18.70811355,23.34999 -32.72918355,11 -4.02605,-6.76 0.530798,-15.619993 -8.352552,-19.599991 C -38.922827,84.245197 -55.657976,79.4652 -45.242324,67.935208 -50.690511,56.835215 -75.187323,50.375219 -63.61994,35.035229 -53.745101,25.465236 -69.709091,11.175245 -55.287419,1.8952513 -53.965432,-12.174739 -30.119598,-12.234739 -18.952817,-8.0447421 -8.4670601,-12.984739 15.068307,-20.944734 5.2936186,-0.32474719 -5.2522291,12.445244 0.66666545,29.235233 18.743831,22.005238 c 7.361061,1.069999 7.110685,12.429992 -0.711069,4.279997 -11.657518,2.379999 13.92092,12.489992 0.05007,16.569989 C -1.4965853,40.955226 29.560085,62.255212 9.4498643,59.855213 -1.5466606,70.975206 27.156473,91.215192 21.097367,72.045205 c 6.519798,-5.019997 5.548338,-7.219995 2.633959,-12.789992 7.230866,-0.499999 5.378081,-13.92999 9.243891,-1.079999 6.349541,3.469998 9.894869,7.529995 16.645013,6.289996 3.224846,12.519992 7.130715,1.519999 12.028075,1.029999 7.651498,3.979998 23.555398,-2.089998 18.10721,12.549992 C 90.511679,95.58519 47.887626,98.715187 65.944761,82.215198 59.014347,70.765206 48.959237,101.06519 47.667295,81.425199 c -7.00052,-5.029997 -19.919934,2.499998 -19.879874,-7.119995 -0.610918,3.379997 1.522287,6.629995 -1.171761,9.839993 z M -12.012388,-52.994712 c -1.96295,-1.919999 4.366562,-5.879997 -3.575373,-7.859995 -2.754138,-0.69 -4.747133,0.779999 -7.871829,0 -4.727104,-1.179999 -5.718594,-2.499999 -9.303981,-0.71 -2.924395,1.459999 6.319496,4.969997 6.439677,4.999997 4.616938,1.149999 -0.08012,3.769997 -2.143221,4.279997 -2.473717,0.62 -5.328007,2.659998 -7.150746,3.569998 -2.643973,1.319999 7.341032,1.559999 7.861815,1.429999 2.964454,-0.74 5.11769,-2.549999 7.16076,-3.569998 2.043071,-1.019999 5.608428,-0.959999 8.582898,-2.139998 z M -205.87371,29.505233 c 9.99502,1.589999 21.21188,-11.029993 16.15427,-19.099987 -3.81573,-7.4399954 -13.75066,-0.32 -14.68206,4.799997 -7.35105,-1.759999 5.1878,-15.25999037 11.26693,-11.6899927 11.02657,1.9999987 11.02657,17.1099887 2.46371,22.3499857 -4.12621,3.439997 -9.94495,5.399996 -15.20285,3.639997 z m -31.83784,28.569981 c -3.67553,-13.109991 20.57091,-16.429989 19.48928,-2.189998 0.80121,6.229996 -5.31799,14.73999 -12.56889,11.959992 14.20135,-2.049999 4.92741,-26.059983 -3.75564,-12.789992 z m -6.07914,36.069976 c -0.55083,-3.729997 -0.94141,-5.709996 -6.43968,-5.709996 -2.95444,0 0.0801,7.219995 0.72109,7.849995 2.67401,2.679998 4.93742,1.769999 5.71859,-2.139999 z m -8.5829,-172.859885 c 3.54533,14.96999 0.65098,41.899972 -12.98952,44.40997 -15.84881,2.279999 -18.76219,-24.999983 -5.71859,-30.51998 17.5664,-1.729998 -8.43968,24.809984 7.98199,22.349986 9.7146,-4.699997 8.28245,-21.229986 9.88486,-30.27998 0.2003,-1.999999 0.45068,-3.989998 0.84126,-5.959996 z" />
      <path
         id="path16995"
         style="color:#000000;fill:url(#radialGradient16998);fill-rule:evenodd;stroke-width:1.00075"
         d="m 248.01837,19.855239 c 3.63546,1.999999 5.52831,6.539996 9.15376,7.999995 4.31648,-0.29 8.90338,-0.629999 12.46873,2.319999 3.59541,2.469998 2.03306,7.249995 2.34353,10.889992 -0.31047,4.409998 1.06159,9.459994 -1.96295,13.209992 -1.92289,4.299997 -4.28645,8.939994 -3.1247,13.789991 1.52229,3.099998 4.29646,5.959996 4.02605,9.629993 0.24036,4.339997 -3.43516,7.459995 -5.11769,11.159993 -3.48524,3.029998 -6.87033,6.359996 -8.94344,10.559993 -2.07312,3.799993 -8.80323,3.579993 -8.99352,8.489993 -1.14171,3.78 0.36055,7.47 0.51077,11.23999 -1.54232,4.74 -6.43967,0 -9.27393,-0.63 -3.62545,0.39 -8.50278,0.65 -10.61596,4.01 -3.82575,4.65 -7.24088,-1.88 -10.5158,-3.74 -2.36355,-3.07999 2.24337,-7.64999 -2.45369,-10.06999 -2.14322,-3.55 0.0801,-7.47999 0.84127,-11.089992 2.92439,-3.109998 1.37206,-7.919995 2.27341,-11.809992 0.0501,-6.189996 0.17026,-12.409992 -0.0601,-18.589988 -1.83275,-3.769997 -0.34051,-7.919995 -1.55233,-11.779992 -0.87131,-3.659998 -1.89284,-7.569995 -0.83125,-11.299993 1.97297,-1.399999 6.29947,-2.529998 8.23237,-1.509999 0.92139,7.109996 0.64097,14.299991 0.76115,21.459986 0.57085,3.319998 -0.16024,8.569995 3.71558,9.879994 4.78719,1.649999 5.44819,-4.459997 5.88885,-7.689995 0.78117,-4.529997 1.31197,-9.089994 1.07161,-13.699991 -0.5308,-4.329997 1.94292,-8.119995 2.14322,-12.369992 0.12018,-4.369997 2.64397,-7.589995 4.57688,-11.269993 2.29344,-2.519998 -0.70106,-8.539994 4.11618,-8.449994 0.47071,-0.15 0.87131,-0.45 1.32199,-0.64 z" />
      <path
         id="path2124"
         style="fill:url(#radialGradient3585);fill-rule:evenodd;stroke-width:1.00075"
         d="m 38.773931,-252.28458 c -17.967,2.73 -36.2144211,3.84 -54.391737,3.54 -7.471227,-3.45 -22.083185,1.65 -12.128225,10.26999 4.446682,8.31999 17.09569,18.89999 9.394117,27.09998 11.2569157,6.99 21.0015593,16.26999 35.042659,17.51999 5.438173,-3.6 19.268957,1.84 8.90338,6.72 -11.076645,6.37999 -19.3290466,-9.03 -30.3255715,-1.09 -8.5328225,2.26 -18.3676015,-8.42 -22.0130795,0.46 -16.474758,-3.46 -3.294952,14.61999 5.588397,14.53999 10.525818,8.02999 24.737174,4.24999 35.343112,12.07999 7.541333,9.31999 13.760679,19.62999 24.616993,25.87998 0.981475,4.62 -11.717609,2.39 -5.748639,10.83999 4.97748,12.25 -19.589438,-9.30999 -17.826789,3.32 7.821754,3.89 27.992065,8.9 16.735149,20.10999 -5.918895,4.679996 -12.618963,26.539982 -0.110166,25.029983 3.435162,-8.529995 7.99201,-16.349989 14.311507,-12.299992 1.842769,-5.329997 1.412122,-17.679991 5.01754,-5.359997 4.506772,9.819994 5.257901,25.089984 -5.247887,31.33998 -8.693063,7.499995 6.990505,26.599982 17.165796,18.569987 11.857819,-0.659999 10.916405,-16.679989 17.436202,-20.409986 3.044575,10.969993 -13.440197,28.199981 5.458202,31.129979 3.254892,5.959996 10.495773,6.539996 14.151269,7.429995 2.30346,10.379994 6.98049,29.3499811 20.29049,16.4199896 6.85029,-4.0299976 11.18681,-9.4199936 19.74968,-6.5199956 9.11369,-3.799998 6.40963,-21.459986 19.8999,-17.019989 7.982,8.509995 -4.00602,-23.049985 9.9149,-14.079991 10.68606,5.699997 2.32349,-4.649996 -2.4637,-6.949995 3.80572,-2.959998 10.41565,-5.469996 2.8643,-10.709993 -9.46422,-2.299998 -12.72913,-8.749994 -6.27943,-16.639989 1.69254,-8.669994 -1.36205,-18.179988 3.41513,-26.219986 4.02605,-8.72999 -1.82274,-13.36999 -8.02206,-17.46999 5.53833,-7.91999 19.63952,2.12 26.42972,-6.60999 -4.4567,-4.19 -0.95143,-9.36999 -1.43215,-14.17999 -12.79924,-2.88 2.32349,-20.80999 -12.85933,-23.09999 -9.985,-4.49999 -18.75818,-11.70999 -29.86488,-13.63999 -10.99652,0.7 -20.40065,-4.07999 -27.18084,-12.85999 -7.00052,-10.90999 -21.732659,-11.26999 -31.437243,-19.66999 -9.684553,-6.09999 -25.398166,-12.34999 -23.585442,-25.93998 -6.710084,-4.17 -13.279957,-8.92999 -20.811274,-11.52999 z" />
      <path
         id="path8075"
         style="color:#000000;fill:url(#radialGradient8809);fill-rule:evenodd;stroke-width:1.00075"
         d="m 204.02226,-198.71462 c -0.77116,4.42 3.91588,7.82 4.28644,12.24 1.80271,2.18999 2.7942,7.86999 -1.65249,5.53999 -3.70556,1.21 -0.24036,6.85 1.2619,9.12 2.84427,3.72999 3.74563,8.69999 3.03456,13.22999 -2.68403,2.1 -7.75165,1.06 -8.62296,5.39999 -0.74111,3.62 -1.08162,7.95 1.67252,10.87 3.45519,3.78999 -0.19029,7.90999 -3.55535,10.02999 -3.21483,0.46 -9.24389,-1.8 -8.74314,3.99 0.34052,4.48999 -1.03155,8.17999 -3.85579,11.43999 -0.9314,3.99 1.7326,7.87999 1.6625,11.54999 3.82575,0.99 8.19231,1.22 10.77619,4.74 3.42515,4.029996 7.35105,7.709994 12.31851,9.709993 3.30497,3.239997 9.28395,0.799999 8.00203,-4.059998 0.13019,-3.859997 -5.06762,-8.449995 -0.90136,-11.519995 3.70557,-0.85 7.7817,-2.64 6.49977,-7.27999 -0.89134,-3.71 -1.05158,-8.23 3.89586,-8.5 3.89585,-3.60999 -3.68554,-6.96999 -3.69556,-10.91999 0.56085,-4.21 -3.31498,-9.80999 0.2003,-12.91999 4.15625,-0.89 6.68004,-4.86 3.49526,-8.39 -2.58389,-3.21999 -5.75866,-6.86999 -4.37658,-11.35999 2.2634,-4.84999 -4.53682,-6.55999 -7.37108,-9.00999 -3.89585,-3.9 -1.96295,-10.25 -5.06761,-14.61999 -1.38208,-3.87 -5.52831,-5.01 -8.00203,-7.82 -0.41062,-0.5 -0.8012,-1 -1.26189,-1.46 z" />
      <path
         id="path8820"
         style="opacity:0.8;fill:#553c2c;fill-rule:evenodd;stroke-width:1.00075"
         d="m 25.54405,-75.144698 c 2.744123,2.739998 4.346531,7.349995 2.643973,11.039993 -3.525298,2.259998 -2.964455,-4.139997 -4.576878,-3.999997 -1.09164,4.709996 -0.490737,9.619993 -0.210316,14.38999 -1.191791,3.479998 -6.770174,1.019999 -5.067615,-2.549998 -0.300452,-4.109998 3.375072,-7.289995 2.924394,-11.459993 0.881325,-3.779997 -2.724093,-5.009996 -5.368067,-2.769998 -4.316486,0.89 -2.423642,-5.529996 1.271912,-4.189997 3.234861,-0.01 0.180271,-5.579996 4.426652,-3.849998 1.932905,0.18 3.495252,1.499999 3.955945,3.389998 z m -21.8227943,4.289997 c 3.0846354,1.519999 9.5343273,1.21 10.4657273,4.349997 -2.383582,1.33 -3.084635,3.889998 -3.304967,6.179996 -1.9829794,-1.919998 -3.7356132,-8.679994 -6.8603088,-3.839997 -3.5052675,3.439998 1.1317007,7.719995 4.9674648,6.449996 3.274921,-2.009999 0.4406622,4.499997 4.256396,2.579998 5.608428,0.31 -1.021535,3.559998 -3.445177,3.209998 -2.5838829,2.689998 -4.5768778,6.379996 -9.1036804,6.029996 -3.805719,-0.8 -7.9319196,-1.899999 -11.7877136,-0.42 -3.134711,2.239999 3.1046653,6.619996 5.8688191,4.389997 2.9544397,-1.709999 6.14924065,-2.879998 9.223861,-4.349997 3.3650568,-1.929999 7.7516489,-1.709999 11.3770969,-0.679999 3.154741,1.999998 7.741634,2.379998 9.574388,5.999996 2.383582,3.769997 7.781694,1.619999 11.427172,2.859998 3.345026,1.299999 6.559858,4.269997 5.13772,8.209994 -0.490737,4.059998 0.470708,8.149995 0.120181,12.239992 -1.301956,3.459998 -5.047585,5.519997 -6.229361,9.2499941 -2.103161,3.049998 -5.738624,4.2299972 -8.783199,6.0299961 -0.460692,2.84999807 -2.293446,6.8299954 -5.03757,2.82999808 -0.97146,-1.86999878 -1.392092,-5.78999618 -3.915885,-2.74999818 -4.196306,1.78999882 -5.738623,-4.8099968 -1.241866,-5.3899964 3.01453,-3.0299977 3.665508,-7.7699947 1.241866,-11.3899927 -1.372061,-4.109997 -5.007525,-5.399996 -8.4026266,-2.609998 -4.3265016,-1.419999 4.1061706,-7.949995 -1.1016555,-5.099997 -3.204816,2.239999 -6.6299631,4.019998 -10.0651252,5.889996 -1.4221372,0.41 -4.7571488,3.589998 -3.1146806,0.03 3.3450267,-1.389999 6.8402791,-2.669998 9.614448,-5.139996 2.0831304,-2.059999 0.2503763,-3.979998 -1.9529347,-1.999999 -3.7856889,2.199999 -7.6414832,4.229997 -11.3069915,6.569996 -1.7125739,1.099999 -5.3880969,2.039998 -3.3550419,-1.219999 3.2548914,-1.899999 6.9304148,-3.289998 9.985005,-5.629997 2.43365715,-0.579999 2.8843344,-1.979998 -0.06009,-1.299999 -2.9143795,0.38 3.1146806,-5.129997 -1.3720618,-4.899997 -3.7255987,0.14 -6.2894514,-2.909998 -9.7847042,-3.199998 -3.595403,0.38 -7.341032,-0.589999 -10.05511,-2.999998 -3.735614,-2.009998 -1.652483,-7.009995 2.233356,-7.359995 3.224846,-1.509999 6.499767,-2.879998 9.514297,-4.779997 3.9459305,-1.369999 7.9419354,-3.809997 12.3084972,-2.819998 1.6324532,0.48 5.0275551,1.02 2.1532358,-1.099999 -1.8427692,-3.069998 -4.6970585,-5.209997 -7.3510467,-7.229995 -0.8412642,-4.629997 4.50677245,-6.599996 8.1622654,-6.889996 z m 31.1167603,20.359987 c 3.935915,-2.079999 7.641483,1.129999 10.826269,3.069998 2.383582,1.059999 2.904365,8.369994 -0.210316,4.529997 -1.882829,-3.369998 -4.987495,-6.089996 -8.813244,-6.929996 -0.691038,0.22 -1.261896,-0.369999 -1.802709,-0.669999 z m -5.007525,2.499998 c -2.233356,0.47 -7.881844,-0.939999 -8.272431,0.64 2.183281,0.979999 7.381092,2.379998 8.402627,0.13 z m -37.9069642,17.499989 c -1.3820769,-0.05 -10.2854568,-0.56 -4.6569978,2.139998 2.033055,0.77 4.0661099,0.09 4.6569978,-2.139998 z m -8.5828978,15.709989 c -3.355042,1.989999 -4.126201,-1.599999 -2.593898,-3.829997 -1.231851,0.979999 -8.042085,2.409998 -4.316487,4.129997 0.731099,2.839998 7.130716,3.579998 6.910385,-0.3 z M 6.9461018,-40.85472 c -1.3019565,1.179999 -3.0445752,1.789998 -4.7871939,1.779998 -0.8913394,0.05 -1.7626488,-0.13 -2.61392805,-0.359999 -0.73109865,0.07 -1.46219725,0.769999 -1.43215215,1.539999 -0.02003,1.509999 0.3004515,2.999998 0.6910385,4.439997 0.52078255,1.289999 1.9929949,1.669999 3.1347106,2.239998 1.4221371,0.77 3.0445752,1.149999 4.6670133,1.079999 0.8713094,-0.01 1.8828294,0.16 2.5738679,-0.499999 0.99149,-0.82 1.902859,-1.899999 1.992995,-3.239998 0.120181,-1.349999 0.190286,-2.859998 -0.671008,-4.009997 -0.290437,-0.72 -1.4321526,-1.13 -1.3920924,-1.869999 0.7210836,-0.72 1.7326034,-1.059999 2.6740184,-1.409999 0.781174,-0.16 1.241866,-0.88 1.832754,-1.339999 0.01001,-0.63 -1.251881,-0.17 -1.712573,-0.16 -1.682529,0.36 -3.4151325,0.799999 -4.8773298,1.749999 z" />
      <path
         id="path9576"
         style="color:#000000;opacity:0.8;fill:#553c2c;fill-rule:evenodd;stroke-width:1.00075"
         d="m 6.9461018,-36.924723 c -2.0230401,0.04 -2.3635518,1.209999 -2.8643043,3.209998 -0.6609933,2.639998 1.1417157,2.859998 3.2148311,2.859998 2.013025,0 1.7926939,-1.619999 1.7926939,-3.569998 0,-1.129999 -0.9714598,-1.569999 -2.1432207,-2.499998 z" />
      <path
         id="path10316"
         style="fill:#5f4433;fill-rule:evenodd;stroke-width:1.00075"
         d="m -145.78341,115.93518 c -2.23336,0 4.27643,1.24 6.43968,1.77999 2.20331,0.55 4.07612,0.79 6.07913,1.79 2.1933,1.09 5.15775,1.68 7.51129,2.85 3.11468,1.56 6.42966,2.29 9.65451,3.58 3.63546,1.45 7.87183,2.5 11.4472,3.21 2.47372,0.49 4.947434,1.86 7.511287,2.5 2.083131,0.52 4.206321,1.73999 5.718594,2.49999 1.251881,0.62 2.633958,1.1 3.935914,1.43 1.98298,0.49 -2.964454,1.07 -3.575372,1.07 -1.432153,0 -3.575373,-1.43 -4.296457,-2.14 -0.811219,-0.81 -4.176276,-1.2 -5.358056,-1.79 -1.6024,-0.79999 -4.17627,-0.82999 -6.07913,-1.77999 -1.96295,-0.98 -3.74563,-1.52 -5.72861,-2.5 -2.00301,-1 -3.97597,-1.27 -6.07914,-1.79 -1.95293,-0.49 -3.52529,-1.33 -5.36806,-1.79 -1.73261,-0.43 -3.82575,-1.37 -5.35805,-2.14 -1.82274,-0.9 -3.36506,-1.1 -5.00753,-1.43 -1.38208,-0.27 -3.37507,-0.66 -5.00752,-1.07 -1.69255,-0.42 -3.49526,-0.78 -4.657,-1.07 -1.54232,-0.39 -3.09465,-0.69 -4.64699,-1.07 -2.12319,-0.52999 -2.8643,-0.63999 -2.8643,1.78 0,2.25 -0.57086,2.5 -2.85429,2.5 -2.17326,0 -0.74111,-2.81 -0.36054,-3.57 0.6009,-1.2 2.74412,-2.43999 4.28644,-3.20999 0.94142,-0.47 3.87583,0.2 4.657,0.36 z m 12.15827,-7.5 c 0.74111,-0.37 3.95594,0.62 5.71859,1.07 2.08313,0.52 3.98599,1.01 6.08915,1.43 2.15324,0.43 4.35655,0.55 6.42967,1.07 2.04307,0.51 4.02605,0.66 6.08915,1.07 1.89284,0.38 3.85579,1.32 5.71859,1.78 1.63245,0.41 3.31498,1.01 5.007525,1.43 2.243371,0.56 3.284936,1.27 5.368067,1.78999 2.0631,0.51 2.744124,1.07 0,1.07 -1.94292,0 -3.955945,-0.99 -5.728609,-1.43 -2.253383,-0.55999 -4.356543,-0.90999 -6.439673,-1.42999 -2.0631,-0.51 -3.28494,-1 -5.00753,-1.43 -1.63245,-0.41 -3.01453,-1.11 -4.28644,-1.42 -1.69254,-0.43 -3.37507,-0.4 -4.64698,-0.72 -1.82274,-0.45 -3.43517,0.04 -5.00753,-0.36 -1.42214,-0.35 -2.62394,-1.1 -3.93591,-1.42 -2.42365,-0.61 -3.55535,-0.25 -5.36807,-2.5 z m 45.428267,-8.929993 c -1.572363,-0.4 3.07462,1.030003 4.646983,1.430003 1.772664,0.44 2.734109,1.07 4.646983,1.07 2.053085,0 2.964455,0.35 5.007525,0.35 1.932905,0 -2.513777,0.89999 -3.214831,1.07999 -1.432152,0.35 -3.535312,0.34 -5.007525,0.71 -2.694048,0.67 -1.342017,1.16 0,2.5 1.131701,1.13 2.343522,1.62 3.214831,2.5 1.462198,1.45 2.363552,3.14 3.224846,4.29 1.362047,1.81 -1.181776,1.04 -2.503762,0.71 -2.073116,-0.52 -2.844274,-1.17 -4.656998,-0.71 -1.772664,0.44 1.021535,3.51 1.432152,3.92 1.11167,1.10999 3.01453,1.46999 4.296456,1.78999 1.432152,0.36 2.804214,1.01 3.575373,1.79 1.472212,1.47 -1.882829,0.68 -3.214831,0.35 -1.852784,-0.46 -3.575373,-1.33 -4.656998,-2.14 -1.01152,-0.76 -2.674019,-1.16 -3.935915,-1.78999 -0.881324,-0.44 -3.855794,0.78999 -5.007525,1.07999 -1.572363,0.39 0.941415,-2.72999 1.081625,-2.85999 0.771159,-0.77 3.074621,-1.51 3.9259,-2.14 1.492243,-1.12 1.321987,-1.69 1.792694,-3.58 0.390587,-1.57 -0.9314,-3.07 -1.792694,-3.92 -0.97146,-0.98 -1.632453,-2.2 -2.143221,-3.22 -0.420632,-0.84999 -0.440662,-1.85999 -0.711068,-3.209993 z m -7.871829,27.849983 c -0.921385,-1.83 4.06611,0.67 6.079135,1.08 2.563853,0.51 4.837269,1.37 7.511287,2.14 0.83125,0.24 1.672514,0.47 2.503763,0.71 1.462197,0.42 3.104665,1.05 4.646983,1.42999 2.103161,0.52 3.084635,1.01 4.656998,1.79 3.204816,1.6 -0.480722,0.69 -2.153235,0.35 -2.093146,-0.41 -4.00602,-1.01 -6.079136,-1.42 -1.842769,-0.37 -3.715583,-0.36 -5.718593,-0.36 -1.972965,0 -3.224846,0.35 -4.646984,0 -1.502257,-0.37999 -3.224846,-1.24999 -4.296456,-1.78999 -1.992995,-0.99 -2.503762,-1.08 -2.503762,-3.93 z m 26.830318,-6.78 c -1.622438,-0.81 3.555343,0.71 5.358052,0.71 2.143221,0 1.061596,1.83 0.721084,3.22 -0.450677,1.8 0.250376,3.71 0.711068,4.64 0.620933,1.24 1.522288,-2.33 2.143221,-3.57 0.941415,-1.87 1.392092,-3.17 2.503763,-4.29 0.941414,-0.93 1.892844,-2.92 1.081625,0.36 -0.410617,1.62 -1.211821,2.76 -1.792694,3.93 -0.671008,1.33 -0.630948,3.2 -0.360542,4.28 0.160241,0.65 2.804214,1.94 3.224846,2.15 0.821234,0.41 1.512273,3.54999 1.782679,4.63999 0.490738,1.96 0.06009,3.32 0.721084,4.64 0.340512,0.68 3.294951,1.65 4.286441,2.15 2.353537,1.17 4.326502,1.87 6.800219,2.85 2.283432,0.91 4.677029,1.09 6.790204,2.14999 2.283431,1.13 6.059105,1.15 8.592913,1.78 2.814229,0.71 5.368067,0.86 8.222356,1.43 2.293446,0.46 5.197811,1.52 7.150746,2.5 1.7526334,0.87 4.476727,1.38 6.079135,1.79 2.0130251,0.5 3.8858394,1.58 5.72860865,2.5 1.50225755,0.75 4.17627585,1.13 5.36806675,1.42 2.0731154,0.52 4.3365166,0.28 6.0791356,0.72 1.852784,0.46 3.244876,1.08 4.646983,1.43 1.96295,0.49 -4.08614,0.33 -6.079135,0 -2.4937478,-0.42 -4.7170889,-1.18 -7.150746,-1.79 -2.50376255,-0.62 -5.6184431,-1.43 -7.8718294,-1.43 -2.613928,0 -5.6384726,-1.35 -8.2323706,-1.78 -3.294952,-0.55 -6.389602,-2.05 -9.654509,-2.86 -3.024545,-0.75 -5.868819,-2.14 -8.943439,-2.14 -1.932905,0 -4.556848,-1.05 -6.079136,-1.43 -1.792694,-0.45 -3.98599,-0.88 -5.368066,-1.43 -1.702559,-0.68 -4.026051,-1.12 -5.358052,-1.78999 -1.512273,-0.75 -2.93441,-1.44 -4.296457,-1.78 -1.211821,-0.31 -2.333506,-2.17 -2.864304,-3.22 -0.590888,-1.19 -1.221836,-2.81 -1.782679,-3.92 -0.781174,-1.57 -0.681023,-2.47 -1.792694,-3.58 -0.861294,-0.86 -3.09465,-0.95 -3.935914,-1.78 -0.711069,-0.71999 -3.665509,-0.36 -5.007525,-0.36 -0.691039,0 -1.98298,-3.24999 -2.143221,-3.56999 -0.831249,-1.67 -1.412122,-2.91 -1.071611,-4.29 0.560843,-2.25 2.9945,1.25 3.214832,2.15 0.420632,1.65 0.10015,3.41 2.153235,3.93 1.171761,0.29 0.711069,-3.65 0.711069,-4.65 0,-2.71 -0.711069,-2.13 -2.143221,-3.57 -0.891339,-0.88 -0.791189,-0.78 -2.143221,-2.14 z M 206.88656,-5.8547435 c -2.69405,-2.6899983 0,7.6199949 0,11.4299924 0,3.6099976 0.71107,5.9099961 0.71107,9.9999931 0,3.179998 0.71107,6.459996 0,9.279994 -0.69104,2.759998 -2.17327,5.119997 -2.85429,7.859995 -0.78117,3.119998 0,7.489995 0,10.719993 0,3.719997 0.7311,7.199995 1.43215,9.999993 0.77116,3.109998 0,7.479995 0,10.709993 0,5.879996 -2.76415,2.239999 -4.29645,0.71 -1.96295,-1.959999 -2.5939,-7.329995 -3.57538,-9.279994 -1.81272,-3.629998 -3.49525,-6.099996 -4.29645,-9.289994 -0.31047,-1.239999 -2.3235,-1.119999 -3.57538,-1.429999 -2.7942,-0.69 2.29345,5.289996 3.57538,7.859995 1.45218,2.899998 2.23335,5.169996 3.57537,7.859995 1.01152,2.009998 1.63245,7.199995 2.15323,9.279993 0.78118,3.119998 0,7.489996 0,10.719993 0,7.079996 5.02756,13.649991 6.43968,19.279988 0.74112,2.969993 -0.92138,4.699993 -2.15323,7.149993 -1.55234,3.09 -3.02455,4.62 -4.28645,7.14 -1.08162,2.16 -4.20632,3.87999 -6.43967,4.99999 -2.58389,1.29 -4.22635,3.18 -6.43968,4.29 -5.83877,2.91 -3.03456,-6.80999 -2.14322,-8.57999 1.72259,-3.44 1.58238,-6.74 2.85429,-9.28 1.77266,-3.52999 -1.47221,-7.249992 -2.14322,-8.569991 -1.67252,-3.339998 -3.54533,-3.759998 -7.15075,-2.859999 -2.40361,0.6 -4.10617,4.099998 -5.72861,5.709997 -2.2634,2.270003 -3.65549,5.329993 -4.28644,7.859993 -0.86129,3.43 -2.84427,5.68 -4.29645,8.57 -1.51228,3.02999 -3.62545,6.52999 -5.00753,9.28999 -1.32199,2.64 -5.46822,3.69 -7.86181,4.28 -3.55535,0.89 -5.32801,2.47 -7.16076,4.28999 -2.80422,2.8 -4.60693,3.83 -9.29397,5 -4.03607,1.01 -5.81874,1.52 -7.87183,3.57 -2.69405,2.69 -6.78019,1.26 -9.30398,0 -1.83276,-0.92 -3.16476,-2.65 -5.00753,-3.57 -2.42364,-1.21 4.51679,-3.08 6.43968,-5 1.87282,-1.86999 3.74563,-3.18999 5.00753,-5.70999 0.53079,-1.07 5.90888,-2.96 7.16076,-3.58 3.48523,-1.74 3.11468,-2.85 8.58289,-2.85 4.31649,0 6.37959,-0.7 9.29397,-1.43 2.73411,-0.69 4.56686,-3.12999 6.43968,-4.99999 2.63396,-2.63 2.49375,-5.99 2.8643,-7.86 0.63095,-3.14 -1.95293,-3.31 2.86431,-5.70999 2.56385,-1.28 5.20782,-4.030002 7.15074,-5.000001 2.41363,-1.21 4.15625,-3.439998 5.7186,-4.999997 2.19329,-2.189999 3.97597,-3.059998 6.43967,-4.289997 3.10467,-1.549999 4.53682,-3.329998 7.87183,-4.999997 2.25339,-1.129999 3.35504,-4.559997 4.28644,-6.429996 1.53231,-3.049998 2.15324,-4.499997 2.15324,-8.569994 V 57.005215 c 0,-0.75 -4.55685,-5.519996 -5.00753,-6.429996 -1.84276,-3.679997 -4.20632,-2.539998 -6.43967,-1.429999 -3.75565,1.879999 -1.61243,4.099997 -5.72861,0 -3.80572,-3.809997 -1.83276,-7.769995 0,-11.429992 1.45218,-2.879998 0.35053,-7.119996 1.43215,-9.279994 0.95143,-1.889999 5.7887,-1.459999 7.16076,-2.149999 2.34352,-1.169999 0,-5.239996 0,-7.849995 0,-2.029998 2.32349,3.789998 4.28644,4.279998 1.50226,0.379999 -1.16174,-5.939996 3.57538,-3.569998 2.69404,1.339999 3.04457,2.849998 4.29645,-2.139999 0.54081,-2.189998 -1.6625,-6.629995 -2.14322,-8.569994 -0.87131,-3.4899977 0,-7.1399953 -0.72108,-9.9999934 -1.27191,-5.0799966 2.94442,-1.1099992 3.57537,1.41999909 0.79119,3.14999791 1.74262,6.01999601 3.57537,7.85999481 2.54383,2.5299985 -0.15022,-7.23999522 0.72109,-10.7099929 0.85128,-3.4099978 -2.2634,-4.0299974 3.57537,-2.8599981 z M 182.56,57.715214 c 0.83125,-3.279997 -5.60842,4.569997 -6.42966,7.859995 -0.95143,3.799998 -1.60241,4.669997 0,7.859995 1.68253,3.349998 3.16476,3.669998 6.42966,2.849998 2.88434,-0.719999 4.04608,-4.489997 5.00753,-6.429996 1.63245,-3.249997 1.43215,-6.009996 1.43215,-9.999993 0,-3.479998 -4.68704,-3.009998 -6.43968,-2.139999 z m -59.36921,20.719987 c 0,-4.549997 2.03305,7.319995 3.57537,14.99999 0.61092,3.039998 -2.73411,6.159996 -3.57537,7.849999 -1.75264,3.48999 -3.03456,4.77999 0.71107,5.71999 1.7326,0.43 6.50978,-4.36 7.16076,-4.99999 1.56234,-1.57 2.57386,-5.150001 3.57537,-7.15 1.29194,-2.589998 1.43215,-5.389996 1.43215,-9.279994 0,-4.019997 -1.62244,-5.189996 -3.58539,-7.139995 -2.0631,-2.069999 -7.41113,0 -9.29396,0 z" />
      <path
         id="path17002"
         sodipodi:nodetypes="cccccccccccccccccccccccc"
         style="color:#000000;fill:url(#radialGradient17005);fill-rule:evenodd;stroke-width:1.00075"
         d="m -175.47803,229.6851 c -31.72768,-25.09998 -58.80838,-54.47996 -81.54254,-98.21993 5.68855,-0.17 12.7792,2.41999 15.02257,8.03999 3.01453,5.23 4.03607,11.41999 7.51129,16.42999 1.97297,6.72 11.51731,6.54 10.01505,-1.46 -0.71107,-8.05999 7.83177,-4.48 10.02507,0.1 1.71257,4.44 10.60593,5.92 6.82025,-0.57 -2.94443,-5.91 -8.40263,-10.89999 -9.41415,-17.68999 0.2003,-2.21 -3.47522,-4.85999 0.92138,-4.76999 4.04608,4.11999 1.40211,10.94999 6.30948,15.09999 2.61393,4.84999 10.48576,10.34999 5.1177,15.69999 3.996,2.58999 5.96897,7.79999 9.09366,10.40999 2.14322,-1.59 3.98599,2.22 3.76566,-2.52 -0.86129,-2.21 -2.38358,-8.80999 0.69104,-3.49 2.56385,5.67 8.48275,10.16 8.15225,16.68999 4.66701,4.89 5.80873,11.58999 8.94344,17.13999 6.41965,2.13 7.9219,9.15999 13.23989,12.85999 2.5238,4.81 9.41415,7.27 10.1152,12.60999 -2.9945,1.26 -11.13673,-1.95 -10.9164,0.91 5.29796,3.17 11.00654,5.58 16.21437,8.91 5.2579,3.07999 10.93643,5.75999 15.55337,9.68999 -6.43968,-0.81 -12.19833,-4.42 -18.41768,-6.23 -5.91889,-3.22999 -12.71911,-5.13999 -17.29599,-10.37999 -3.24488,-1.72 -6.9905,-0.96 -9.92491,0.74 z" />
      <path
         id="path16204"
         sodipodi:nodetypes="csssccssssssssssccssccsssccssssssccssccsssccsssccsssccsssccsssccsssccsssssssscccccccccccccccccccccccccccccccccccccccccccccccccccccccccccccccccccccssssccsssscssc"
         style="color:#000000;opacity:0.8;fill:#3c2c22;fill-rule:evenodd;stroke-width:1.00075"
         d="m 28.758881,97.005189 c -2.303462,-1.33 -6.00903,-1.859999 -7.861815,0 -2.834259,2.819998 -2.08313,4.420001 -0.721083,7.139991 1.482227,2.95 6.720098,0.58 7.871829,0 3.335012,-1.66 3.725599,-2.12999 0.711069,-7.139991 z M -1.9973378,113.43518 c 3.1447257,-1.58 -5.8888494,4.13999 -9.3039812,4.99999 -2.293447,0.57 -6.019045,3.87 -7.150746,5 -2.904364,2.89 -0.981475,5.45 0.711069,7.14 2.904364,2.88999 2.273416,3.06999 7.16076,4.27999 2.3935973,0.6 3.8357644,5.27 5.0075253,6.43 1.2218361,1.23 3.2649063,1.43 5.007525,1.43 2.5738679,0 -3.1447257,-4.12 -4.2964565,-6.43 -1.4822274,-2.95 -3.1347106,-3.84999 -5.007525,-5.70999 -2.7140788,-2.71 2.3234917,-5.17 3.5753729,-6.43 1.7926939,-1.79 5.3680668,-1.79 7.16076075,-3.57 2.91437955,-2.92 1.53230265,-6.26999 -2.86430425,-7.13999 z m 66.5299768,-10 c -1.372062,2.72 4.096156,-5.719992 7.150746,-5.719992 3.935915,0 -0.580873,6.869992 -0.711069,7.139992 -1.822739,3.64 -4.266411,2.19 -6.439677,-1.42 z M 36.270168,86.285196 c 1.201806,0.699999 2.724094,1.429999 5.007525,1.429999 1.782679,0 0.851279,0.09 0,1.789999 -0.781174,1.569998 -3.455192,0.239999 -3.935914,0 -0.901355,-0.46 -0.861295,-2.169999 -1.071611,-3.219998 z m 72.258582,7.499995 c -1.30195,0.589999 -3.01453,2.649998 -3.93591,3.569997 -1.14172,1.14 -1.04157,2.359999 -1.43215,3.930002 -0.42063,1.67999 -1.02154,2.84999 -2.50377,3.21999 -1.982975,0.49 -0.54081,-2.47999 -0.36054,-3.21999 0.35053,-1.380003 1.61243,-2.320003 2.50377,-3.210002 1.05158,-1.049999 1.23185,-2.009999 3.22484,-2.499998 0.99149,-0.25 1.70256,-1.15 2.50376,-1.789999 z M 90.281333,117.00518 c 1.402107,-0.35 -3.585388,0.39 -3.935915,1.77999 -0.170256,0.69 3.9259,0.72 4.656998,0.72 1.382077,0 1.90286,-2.49999 -0.721083,-2.49999 z M 229.05988,-21.214733 c 0,0.789999 -0.64096,1.429999 -1.43215,1.429999 -0.78118,0 -1.42214,-0.64 -1.42214,-1.429999 0,-0.79 0.64096,-1.429999 1.42214,-1.429999 0.79119,0 1.43215,0.639999 1.43215,1.429999 z m 8.23237,16.4299887 c 0,0.7899995 -0.64096,1.4299991 -1.43215,1.4299991 -0.79119,0 -1.43215,-0.6399996 -1.43215,-1.4299991 0,-0.7899994 0.64096,-1.429999 1.43215,-1.429999 0.79119,0 1.43215,0.6399996 1.43215,1.429999 z M 227.2772,0.93525197 c 0,0.77999953 -0.64096,1.41999903 -1.43215,1.41999903 -0.79119,0 -1.43215,-0.6399995 -1.43215,-1.41999903 0,-0.78999948 0.64096,-1.42999905 1.43215,-1.42999905 0.79119,0 1.43215,0.63999957 1.43215,1.42999905 z m -8.5829,-0.71999952 c 0,0.98999935 -0.8012,1.78999885 -1.79269,1.78999885 -0.99149,0 -1.79269,-0.7999995 -1.79269,-1.78999885 0,-0.97999935 0.8012,-1.77999885 1.79269,-1.77999885 0.99149,0 1.79269,0.7999995 1.79269,1.77999885 z M 166.11529,-25.85473 c 0,0.789999 -0.64096,1.429999 -1.43215,1.429999 -0.79119,0 -1.43215,-0.64 -1.43215,-1.429999 0,-0.79 0.64096,-1.429999 1.43215,-1.429999 0.79119,0 1.43215,0.639999 1.43215,1.429999 z m 6.07914,-9.639994 c 0,0.979999 -0.80121,1.779999 -1.7927,1.779999 -0.98147,0 -1.78268,-0.8 -1.78268,-1.779999 0,-0.989999 0.80121,-1.789999 1.78268,-1.789999 0.99149,0 1.7927,0.8 1.7927,1.789999 z M 105.30391,170.57514 c 0.56084,2.88 -4.55685,6.61 -5.718596,8.92999 -1.572363,3.13 -1.962949,3.65 -0.721083,7.5 1.412119,4.36 7.881849,1.42 8.582899,0.71 2.55384,-2.54 -0.94142,-4.17 2.15323,-5.71 2.71408,-1.36 5.44819,-2.26 7.86182,-2.86 3.93591,-0.97999 7.94193,0.02 2.15323,-1.42999 -3.38508,-0.84 -4.71708,0.63999 -7.87183,1.42999 -3.82574,0.95 -5.00752,2.77 -5.00752,-2.85999 0,-2.76 -0.0701,-2.31 -1.43215,-5.71 z M 271.27332,43.435224 c -0.0401,2.359998 0.01,4.729997 -0.17026,7.089995 -0.35053,-1.479999 -0.21032,-5.379996 -0.51077,-5.519996 -0.41061,3.319998 0.45068,6.579996 0.60091,9.829993 -1.6625,2.859999 -3.71559,5.839997 -3.10467,9.349994 0.74111,3.099998 0.49074,6.949996 1.44217,9.659994 2.27341,-3.039998 2.1332,-7.239995 4.24638,-10.409993 2.10316,-3.509998 -2.08313,-6.549996 -1.41212,-10.149994 1.61242,-2.329998 3.01453,3.099998 4.10617,4.239998 2.2634,3.769997 4.07612,-5.499997 4.1963,-1 -0.36054,3.399998 0.57086,7.119996 -1.15173,10.229994 -3.49525,2.139998 -2.0631,6.289995 -4.20632,9.119994 -1.92289,3.779997 0.02,8.449994 -2.55384,12.009992 -1.32198,3.349997 -5.22785,3.159998 -7.84178,4.849996 -3.76566,1.859999 -5.54834,6.019996 -9.02356,8.199999 -3.94593,1.16 -2.24337,-4.770001 -1.43215,-6.79 -1.04157,-1.889998 -3.33501,-2.989998 -4.59691,-4.789996 -4.53682,-0.04 -4.31649,6.349995 -0.36054,7.379995 2.47372,2.429998 -0.18027,7.299991 -3.33501,7.799991 -3.1948,0.48 -6.27944,-1.02 -9.50429,-0.8 -2.8643,-0.93 -4.24638,-4.679993 -7.66151,-4.529993 -4.88734,-1.319999 -1.41212,5.709993 -5.63847,6.019993 -3.48524,1.23 -1.44217,-5.02999 -0.21032,-6.409993 1.10166,-3.669997 5.53832,-1.849998 7.83177,-3.759997 1.332,-3.529998 -7.55135,-3.899998 -2.54382,-7.119995 2.64397,-1.19 6.04909,-1.749999 5.62846,-5.579997 1.02153,-3.439997 4.69705,-3.219998 7.51128,-2.499998 2.81423,1.279999 5.26792,-2.889998 1.75264,-3.719998 -2.05309,-1.169999 -7.26091,-1.959998 -4.92741,-5.249996 1.38208,-2.879998 7.02055,-5.539997 7.71159,-0.74 1.16175,3.879998 3.5253,-1.289999 2.9244,-3.219998 1.24186,-1.199999 5.1277,-0.06 3.62544,-3.139998 -1.08162,-3.789997 4.51679,-3.419997 4.56687,-0.05 0.97146,4.469997 2.664,-1.27 2.80421,-2.919999 -0.32048,-2.979998 0.34051,-6.449995 4.0561,-6.199995 2.94442,-1.02 0.68102,-5.419997 1.70255,-7.819995 -0.18027,-2.559999 -0.13019,-7.219996 3.49526,-4.369997 0.65097,0.349999 1.29194,0.729999 1.98298,1.009999 z M -209.09856,177.00514 c 1.56235,0.76 2.32349,2.50999 3.20482,3.91999 0.81122,1.86 2.47372,3.16 3.29495,5.02 1.22184,1.97 3.07462,3.39 4.95745,4.67 0.81122,0.66 -0.3305,-1.91 -0.32048,-2.5 -0.63095,-1.82 -0.9314,-3.7 -1.02154,-5.62 -0.57085,-1.14 -0.19028,-2.96 1.2619,-1.61 1.80271,0.78 2.52379,2.64 3.14473,4.36 1.06159,2.25 2.97447,3.95 4.31648,6.02 1.35203,1.69 2.90437,3.20999 4.36656,4.80999 1.48223,1.32 3.53532,2.36 3.89586,4.51 0.39059,1.68 -2.49375,2.69 -0.88133,4.48 1.27192,2.79 3.91589,4.55999 5.55836,7.09999 0.70105,0.82 2.32349,3.22 1.51227,3.63 -2.44367,-1.08 -5.01754,-2.08 -6.81023,-4.15 -1.49225,-1.51 -3.16476,-2.82 -4.75715,-4.19999 -0.68103,-0.52 -3.5253,-2.21 -2.09315,-0.24 1.16175,1.75999 2.70406,3.17999 4.35655,4.46999 1.14171,1.28 2.89435,2.05 3.65549,3.62 -1.08162,1.51 -3.44518,0.12 -4.49676,-0.94 -2.2634,-2.29 -5.40812,-4.06 -6.32951,-7.34999 -0.19028,-2.01 2.45369,-2.39 3.51528,-3.65 1.91288,-0.72 0.1302,-2.97 -1.41212,-2 -1.5323,-0.01 -3.66551,1.03 -4.48674,-0.84 -1.11167,-1.82 -2.07312,-3.76 -3.45519,-5.4 -1.31197,-1.26 -2.58388,-2.57999 -3.35504,-4.24999 -1.58238,-2.06 -3.50527,-3.89 -4.55685,-6.31 -0.84127,-1.84 -2.03306,-3.54 -2.50376,-5.53 -0.82124,-0.32 -0.47071,-1.22999 -0.56085,-2.01999 z m 2.50377,11.77999 c 1.64246,0.59 2.45368,2.04 3.22484,3.57 0.52078,1.04999 1.81273,2.16999 2.50376,2.85999 1.94292,1.94 -1.23185,0.28 -1.79269,0 -1.11167,-0.56 -1.77266,-2.12999 -2.50376,-2.85999 -1.08163,-1.08 -1.43215,-1.44 -1.43215,-3.57 z m 185.278421,-343.20978 c 0.360542,2.16 -5.558353,6.03 -10.01505,7.14 -4.466713,1.12 0.02003,2.33 3.224846,2.14 2.784184,-0.16 -3.375072,1.47 -6.079136,2.15 -2.944424,0.73 -4.787193,4.38999 -7.16076,3.56999 -3.595403,-1.25999 2.153235,-15.80998 3.935914,-17.49998 4.336517,-1.97 0.691039,5.30999 1.792694,7.49999 0.370557,0.74 6.670024,-3.33 7.150746,-3.57 1.712574,-0.86 4.847284,-2.46999 7.150746,-1.43 z" />
      <path
         id="path19288"
         sodipodi:nodetypes="cccccccccccccccccccccccccccsccc"
         style="fill:#a36734;fill-rule:evenodd;stroke-width:1.00075"
         d="m -205.16264,15.935242 c 2.04307,-4.419997 5.67853,-9.6399936 11.17679,-9.2499938 3.90587,0.3499997 5.73863,4.7799968 6.00903,8.1999948 -0.46069,5.319996 -5.19781,8.979994 -9.48425,11.509992 -3.56536,2.019999 -8.42266,-0.539999 -8.07213,-4.799997 -0.15022,-1.899998 0.1302,-3.789997 0.37056,-5.659996 z m -27.90193,37.499975 c -2.3936,1.589999 -4.59691,4.149998 -4.31649,7.209996 -0.11016,2.899998 0.72109,6.659995 3.88584,7.599995 3.54533,0.929999 7.26091,-1.42 9.02356,-4.389998 0.63095,-2.629998 0.36054,-5.419996 0.42063,-8.109994 0.0501,-3.259998 -3.61543,-5.209997 -6.47973,-4.069998 -1.03155,0.29 -1.80271,1.02 -2.53381,1.759999 z m -31.46729,-112.499925 c -0.85128,3.319997 -3.01453,6.089996 -4.22635,9.269993 -0.85128,1.919999 -1.39209,4.319998 -0.21032,6.229996 0.64097,1.01 1.6625,1.949999 2.95444,1.829999 1.6625,-0.08 3.07462,-1.099999 4.34654,-2.079998 1.79269,-1.01 3.97597,-2.059999 4.50677,-4.229998 0.8012,-3.749997 2.29344,-7.519995 1.68253,-11.409992 -0.16024,-1.729999 0.17025,-3.679998 -0.96145,-5.139997 -0.83125,-0.899999 -2.17326,-1.039999 -3.33501,-0.989999 -2.15324,0.15 -4.36656,1.779999 -4.48674,4.059997 -0.99149,0.64 -0.57086,1.569999 -0.27041,2.459999 z M -250.7211,95.56519 c 3.08463,2.509998 5.19781,2.829998 5.62845,1.749998 0.60091,-0.629999 1.80271,0.24 1.3921,1.01 -0.52079,1.479999 -2.01303,1.599999 -3.48524,2.090002 -2.43366,0.81 -4.92741,-0.03 -6.01905,-2.380002 -0.81122,-2.789998 -2.41362,-8.119995 3.54533,-9.509994 -2.68403,1.499999 -1.332,5.589996 -1.06159,7.039996 z" />
      <path
         id="path19320"
         style="fill:#6e4f35;fill-rule:evenodd;stroke-width:1.00075"
         d="m -195.14759,15.215243 c -1.93291,0.899999 -3.08464,1.249999 -2.50376,3.569997 0.58087,2.319999 3.00451,-0.499999 3.22484,-0.709999 0.78118,-0.79 -0.11016,-1.839999 -0.72108,-2.859998 z m -65.8089,-73.209952 c -1.59239,1.039999 -1.41212,2.779998 -1.79269,4.279997 -0.64096,2.559998 2.17327,-0.41 2.50376,-1.069999 0.41062,-0.82 0.35053,-2.789998 -0.71107,-3.209998 z m -3.22484,-3.039998 c 1.24186,-1.199999 2.90436,-2.079999 4.67703,-1.759999 1.82274,-0.29 3.14472,1.139999 2.85429,2.899998 0.30045,1.909999 0.0901,3.829998 -0.39059,5.679996 -0.29044,1.869999 -0.69104,3.759998 -1.51227,5.449997 -0.79119,1.199999 -1.22184,2.799998 -2.67402,3.389998 -1.39209,0.719999 -2.98449,1.509999 -4.58689,1.109999 0.25037,-0.63 2.3335,-0.9 3.11468,-1.759999 1.58237,-0.74 2.29344,-2.359998 2.91438,-3.879997 0.78117,-1.699999 0.8012,-3.589998 1.19179,-5.399997 0.0501,-1.579999 0.19028,-3.519998 -1.12169,-4.669997 -1.39209,-0.579999 -2.24337,1.139999 -3.13471,1.879999 -0.31047,0.699999 -1.39209,3.359998 -1.332,1.179999 -0.0901,-1.369999 -0.3305,-2.759998 0,-4.119997 z m 38.27752,121.969919 c -1.57236,0.96 -2.47372,2.649999 -3.89586,3.779998 -1.1317,0.53 -2.41362,0.49 -3.63546,0.5 -0.41062,-0.09 -1.09164,-0.14 -1.28192,0.319999 0.2704,0.45 0.92138,0.41 1.332,0.67 0.86129,0.39 1.82274,0.889999 2.77417,0.57 1.10165,-0.32 2.00301,-1.12 3.11468,-1.41 1.05158,-0.529999 1.95293,-1.419999 2.37356,-2.539998 0.0601,-0.729999 -0.59088,-1.239999 -0.78117,-1.889999 z m -3.22485,-3.579997 c 0.41062,-0.81 -1.07161,1.599999 -1.07161,2.499998 0,0.939999 0.47071,1.239999 1.25188,1.429999 0.98148,0.25 1.07161,-0.809999 1.07161,-1.599999 0,-0.939999 0.14022,-1.519999 -0.18027,-2.149998 -0.19028,-0.39 -0.78117,-0.18 -1.07161,-0.18 z m 85.48847,-40.889973 c -1.51227,-0.44 -3.23486,0.22 -4.20632,1.409999 -0.41062,0.939999 -0.35053,2.089998 -0.0501,3.049998 0.50076,1.059999 1.12169,2.109998 2.16325,2.709998 1.4622,1.079999 3.28494,1.829999 5.12771,1.589999 0.95143,0.28 2.1933,-0.879999 0.84126,-1.319999 -0.90135,-0.14 -1.74261,-0.45 -2.54382,-0.91 -1.15173,-0.299999 -2.09314,-1.219999 -2.44367,-2.359998 -0.34051,-1.139999 0.0801,-2.359998 0.89134,-3.189998 0.16024,-0.3 0.23035,-0.64 0.22033,-0.979999 z m 1.43215,1.609999 c -0.43064,0.559999 -0.89134,1.409999 -0.89134,2.499998 0,0.65 1.1317,0.949999 1.60241,1.069999 1.41212,0.35 0.85128,-1.979998 0.72108,-2.499998 -0.22033,-0.859999 -0.49073,-1.259999 -1.43215,-1.069999 z m -13.05962,-58.219962 c -0.95143,-0.11 -1.84277,0.43 -2.71408,0.72 -1.71258,1.049999 -1.91288,4.109997 0.0401,5.029996 1.24186,0.58 3.10466,0.72 3.93591,-0.589999 0.85128,-1.319999 0.68103,-3.089998 -0.03,-4.419997 -0.32048,-0.38 -0.78118,-0.57 -1.23185,-0.74 z m -1.60241,-9.999993 c -0.24036,0.509999 -0.36054,1.589999 -0.36054,2.679998 0,0.709999 1.18177,1.069999 1.78268,1.069999 0.91137,0 1.08162,-0.789999 1.08162,-1.779999 0,-0.759999 -0.5308,-1.479999 -0.90135,-1.969998 -0.41062,-0.54 -1.01152,-0.23 -1.60241,0 z m 19.10871,189.489874 c -1.42213,-0.92 -3.55534,-0.3 -4.70707,0.74 -1.22184,2.13 0.61092,5.35 3.14473,5.14 1.56234,0.35 3.31498,-0.52 3.29495,-2.29 0.35052,-1.32 0.0901,-3.66 -1.73261,-3.59 z m -8.34253,-10.34999 c 1.58238,0.73 2.55384,2.69 2.43365,4.37999 -0.75112,2.36 -3.97597,3.86 -6.11919,2.33 -1.45218,-1.19 -2.664,-3.01999 -2.36355,-4.98999 0.32048,-0.68 1.06159,-3.12 1.82274,-1.94 0.02,1.23 -0.49074,2.43 -0.2003,3.67 0.0501,1.69999 2.15323,1.99999 3.38508,1.36999 1.61243,-0.82 1.50226,-2.91999 1.11167,-4.41999 l -0.0401,-0.2 z" />
      <path
         id="path11103"
         sodipodi:nodetypes="ccccccccccccccccccccccccccccccccccccccccccccccccccccsssssssssc"
         style="fill:url(#radialGradient12564);fill-rule:evenodd;stroke-width:1.00075"
         d="M 0.14588285,157.00515 C 0.00567215,143.91516 -27.065008,130.66517 -12.923757,121.54517 c 5.3780815,-11.82999 19.9800244,-12.99999 25.718648,-0.98 10.065125,-0.31 1.722589,-18.68998 16.394637,-13.30999 5.718593,-3.95 14.241401,-10.639991 9.00353,1.76 -7.06061,8.54999 12.348556,3.93 15.903899,8.29 4.396607,-4.56 18.06715,-28.539986 17.826789,-11.64 -9.02356,8.83 -13.850814,28.83998 5.528308,24.75999 10.085155,8.78999 31.547406,-8.69 32.689126,11.52999 -5.34804,12.45999 -25.328064,9.50999 -30.35562,18.48999 13.390122,4.39999 15.523328,17.84998 20.67106,29.82998 13.05963,-1.22 23.98605,-12.41999 32.10825,-22.51999 11.22688,-13.71999 26.86037,-2.35 24.66707,12.75999 -16.12423,16.25999 14.26143,24.19999 23.27498,11.19 10.08515,-8.31 22.28348,-14.40999 28.71315,-26.36999 9.46422,-15.95999 18.37761,-34.24997 34.86239,-44.04997 14.77219,-5.64999 15.94396,5.85 9.27393,17.67999 -11.41716,20.20999 -25.07768,42.43997 -55.77381,72.06995 -15.82378,6.42 -28.92347,16.03999 -43.63557,24.53999 -17.05563,6.91999 -34.13129,14.55999 -48.48286,26.23998 -14.421673,12.08999 -33.099742,18.89999 -51.988126,19.26999 -7.110685,1.9 -27.831824,3.23999 -10.425667,-3.13 10.565878,-4.77 47.731728,3.41 33.500342,-21.72999 -13.840799,-9.59999 -28.532877,2.25 -40.971569,12.56 -17.426187,10.38999 -26.7401838,-14.37 -11.487263,-19.42999 -10.746148,-4.62 -3.475222,-13.61999 -2.573867,-20.75999 -7.381092,-3.5 -32.448762,-10.25999 -26.2594616,3.26 -16.5048024,1.59 -21.8728694,19.09999 -40.0001094,14.99999 -14.93244,-7.75 -31.146806,16.64999 -10.90639,19.42999 11.377097,-0.91 23.284992,9.64999 29.654563,13.53999 -16.054125,-1.67 -30.055165,-5.58 -41.582487,-7.42 -6.299467,3.84 -14.381612,-0.89 -5.257902,-4.27999 -6.710083,-2.78 -17.376111,1.04999 -16.885374,-9.36 -17.626489,-8.75999 10.165276,-5.24999 13.870844,-10.30999 5.978985,-13.37999 26.229416,-7.28 37.366152,-16.44999 6.169271,-1.06 30.3656316,-8.24 11.667533,-9.65999 -8.632973,3.52999 -14.331536,8.90999 -22.964509,3.16999 -7.100671,7.04 -20.641018,0.69 -25.758709,12.04 -8.953455,-0.9 -17.967,0.02 -25.71865,2.51999 1.802711,-8.21999 6.139227,-16.63998 -5.73862,-9.59999 -0.0701,-8.22999 20.651031,-11.24999 2.70406,-12.75999 -6.55986,0.1 -11.02657,-8.28 -14.52182,-11.39999 5.72861,-11.91 -22.15329,3.15999 -28.40268,-7.17 -10.99653,-2.02 -15.69359,-20.48999 0.44066,-14.88999 17.4362,4.96 30.58596,-10.51999 47.491366,-2.25 11.817759,4.92 24.126256,29.75998 38.487838,14.75999 7.771678,-7.73999 17.085675,14.12999 28.612997,4.9 14.451718,1.07 -1.792694,-22.40999 17.856835,-20.47999 -6.639979,-8.20999 -2.964455,-11.81999 6.7801884,-11.67999 5.7586538,-1.61 7.01053505,-7.32999 7.69155845,-12.49999 z m 5.24788625,16.93999 c -2.7641538,1.98 -12.1582707,17.66999 -18.7181281,13.63999 -5.418142,-0.95 -2.904365,6.72999 -1.692544,7.32999 2.093146,1.05 12.2183612,2.26 14.84230425,2.26 3.00451505,0 4.56686285,-1.01 7.08064035,-1.01 2.8242441,0 -3.9359146,2.3 -5.0576002,4.55 -1.08162545,2.17 3.1447257,3.08 4.0460802,3.53 1.3420167,0.67 2.814229,3.01 3.5453277,4.04 2.5938977,3.66999 7.7917087,-2.35 8.0921607,-3.53 0.590888,-2.36 1.141715,-4.14 1.512272,-6.06 1.802709,-9.16999 -2.213326,-19.56999 -2.523792,-20.70998 -1.832755,-6.69 -8.3825972,-5.64 -11.1267209,-4.04 z" />
      <path
         id="path30336"
         style="color:#000000;fill:url(#radialGradient30351);fill-rule:evenodd;stroke-width:1.00075"
         d="m 139.64551,-232.28459 c -0.86129,1.91999 1.5924,2.86999 2.42365,4.21999 0.94141,1.32 2.68403,3.3 1.30195,4.87 -1.56234,1.51 -4.02605,0.48 -5.69856,1.78 -1.24187,0.97 -3.10467,2.85 -4.43667,0.92 -0.59089,-1.13 -2.27341,-3.28 -3.38508,-1.51 -0.29044,2.04 0.11016,4.13 0.54081,6.12 1.06159,2.39999 3.89585,3.17999 6.28945,3.42999 5.19781,0.56 10.58591,-0.49 15.62348,1.3 1.88283,0.63 3.57537,1.73 5.39811,2.51 2.20331,0.42 2.43366,-2.28 2.72409,-3.8 0.97146,-5.10999 -1.21182,-10.74999 -5.59841,-13.64999 -2.22334,-1.61 -4.08614,-3.74 -6.61995,-4.88999 -2.4637,-1.24 -5.30797,-1.79 -8.04208,-1.31 -0.17026,0.01 -0.35053,0.01 -0.52079,0.01 z m 42.20343,24.99998 c -3.27493,-0.82 4.76716,4.76 7.15074,7.13999 1.92289,1.92 -0.22033,-5.92999 -2.14322,-7.84999 -1.19179,-1.19 -3.35504,0.38 -5.00752,0.71 z" />
    </g>
    <circle
       style="fill:url(#radialGradient968);stroke-width:2.53083;fill-opacity:1"
       id="path250"
       cx="0.14749682"
       cy="0.57621694"
       r="288.2905" />
  </g>
  <metadata
     id="metadata48">
    <rdf:RDF>
      <cc:Work>
        <dc:format>image/svg+xml</dc:format>
        <dc:type
           rdf:resource="http://purl.org/dc/dcmitype/StillImage" />
        <cc:license
           rdf:resource="http://creativecommons.org/publicdomain/zero/1.0/" />
        <dc:publisher>
          <cc:Agent
             rdf:about="http://openclipart.org/">
            <dc:title>Openclipart</dc:title>
          </cc:Agent>
        </dc:publisher>
        <dc:date>2011-02-16T17:34:38</dc:date>
        <dc:description>originally uploaded by Dan Gerhards for OCAL 0.18</dc:description>
        <dc:source>https://openclipart.org/detail/118855/mars-dan-gerhards-01-by-anonymous</dc:source>
        <dc:creator>
          <cc:Agent>
            <dc:title>Anonymous</dc:title>
          </cc:Agent>
        </dc:creator>
        <dc:subject>
          <rdf:Bag>
            <rdf:li>astronomy</rdf:li>
            <rdf:li>mars</rdf:li>
            <rdf:li>planet</rdf:li>
          </rdf:Bag>
        </dc:subject>
      </cc:Work>
      <cc:License
         rdf:about="http://creativecommons.org/licenses/publicdomain/">
        <cc:permits
           rdf:resource="http://creativecommons.org/ns#Reproduction" />
        <cc:permits
           rdf:resource="http://creativecommons.org/ns#Distribution" />
        <cc:permits
           rdf:resource="http://creativecommons.org/ns#DerivativeWorks" />
      </cc:License>
    </rdf:RDF>
  </metadata>
</svg>
