<?xml version="1.0" encoding="UTF-8" standalone="no"?>
<svg
   version="1.0"
   width="1276.000000pt"
   height="1280.000000pt"
   viewBox="0 0 1276.000000 1280.000000"
   preserveAspectRatio="xMidYMid meet"
   id="svg12"
   sodipodi:docname="Tierra.svg"
   inkscape:version="1.2.1 (9c6d41e410, 2022-07-14)"
   inkscape:export-filename="Tierra.png"
   inkscape:export-xdpi="96"
   inkscape:export-ydpi="96"
   xmlns:inkscape="http://www.inkscape.org/namespaces/inkscape"
   xmlns:sodipodi="http://sodipodi.sourceforge.net/DTD/sodipodi-0.dtd"
   xmlns:xlink="http://www.w3.org/1999/xlink"
   xmlns="http://www.w3.org/2000/svg"
   xmlns:svg="http://www.w3.org/2000/svg">
  <defs
     id="defs16">
    <linearGradient
       inkscape:collect="always"
       id="linearGradient1077">
      <stop
         style="stop-color:#4d58b2;stop-opacity:1;"
         offset="0.82065219"
         id="stop1073" />
      <stop
         style="stop-color:#0700ff;stop-opacity:0;"
         offset="0.93206525"
         id="stop1075" />
    </linearGradient>
    <radialGradient
       inkscape:collect="always"
       xlink:href="#linearGradient1077"
       id="radialGradient1079"
       cx="0.91737366"
       cy="2.1839333"
       fx="0.91737366"
       fy="2.1839333"
       r="362.729"
       gradientUnits="userSpaceOnUse"
       gradientTransform="matrix(1.1165361,0,0,1.116536,2.1493292,1.009111)" />
  </defs>
  <sodipodi:namedview
     id="namedview14"
     pagecolor="#ffffff"
     bordercolor="#000000"
     borderopacity="0.25"
     inkscape:showpageshadow="2"
     inkscape:pageopacity="0.0"
     inkscape:pagecheckerboard="0"
     inkscape:deskcolor="#d1d1d1"
     inkscape:document-units="pt"
     showgrid="false"
     showguides="false"
     inkscape:zoom="0.47695313"
     inkscape:cx="710.76166"
     inkscape:cy="-91.20393"
     inkscape:window-width="1920"
     inkscape:window-height="1001"
     inkscape:window-x="-9"
     inkscape:window-y="-9"
     inkscape:window-maximized="1"
     inkscape:current-layer="svg12" />
  <metadata
     id="metadata2">
Created by potrace 1.15, written by Peter Selinger 2001-2017
</metadata>
  <circle
     style="fill:url(#radialGradient1079);fill-opacity:1;stroke-width:2.37655"
     id="path900"
     cx="3.1736116"
     cy="3.4475517"
     r="405" />
  <g
     transform="matrix(0.05144546,-0.01407827,-0.01489389,-0.05147783,-230.98992,420.80125)"
     fill="#000000"
     stroke="none"
     id="g10"
     style="fill:#008000">
    <path
       d="M 6085,12793 C 5305,12748 4664,12608 4000,12340 2828,11866 1827,11058 1108,10005 563,9207 202,8277 65,7316 17,6978 6,6797 6,6395 6,5999 17,5828 66,5490 328,3644 1384,2003 2958,997 3836,436 4801,112 5880,18 c 218,-19 821,-16 1045,5 438,42 832,116 1215,227 1708,494 3133,1684 3930,3280 224,450 349,786 495,1340 145,548 189,888 189,1460 1,415 -22,698 -90,1105 -226,1363 -858,2582 -1836,3540 -774,760 -1678,1286 -2723,1585 -548,157 -744,190 -1390,230 -137,9 -508,11 -630,3 z m 522,-43 h 63 l -51,-96 c -51,-95 -52,-96 -62,-225 -6,-76 -6,-134 -1,-139 10,-10 176,-61 181,-56 2,2 11,42 20,89 16,81 20,90 64,133 l 47,46 319,-142 c 175,-79 365,-166 423,-195 l 105,-52 263,21 262,22 73,72 c 40,40 75,72 79,72 3,0 174,-81 380,-180 l 373,-180 h 168 169 l 96,-57 c 296,-173 640,-420 922,-662 113,-97 322,-293 317,-297 -2,-2 -79,25 -173,60 -408,152 -682,286 -817,398 l -48,40 -371,29 -372,30 -83,-83 c -46,-45 -83,-89 -83,-98 1,-8 18,-55 39,-105 l 38,-90 71,-3 c 40,-2 72,-6 73,-10 0,-4 6,-63 13,-132 7,-69 12,-126 12,-127 -1,-1 -55,30 -120,69 -93,55 -120,68 -127,57 -5,-8 -41,-72 -81,-142 -63,-112 -75,-127 -93,-122 -11,4 -47,9 -80,12 -33,2 -69,8 -80,13 -11,5 -31,10 -45,12 -18,2 -30,14 -43,41 -20,41 -27,42 -108,27 -36,-7 -63,-20 -84,-40 l -30,-29 -45,34 c -43,33 -49,35 -128,35 -89,0 -84,3 -106,-67 -6,-19 -2,-22 44,-28 l 50,-7 -45,-56 c -41,-53 -43,-58 -30,-79 21,-31 20,-33 -23,-33 -49,0 -171,31 -256,65 -74,30 -154,34 -206,12 -42,-17 -103,-76 -234,-225 l -99,-114 79,-79 79,-79 h 57 c 32,0 92,-10 133,-22 64,-19 76,-26 84,-50 11,-32 24,-33 204,-21 l 98,6 117,93 c 123,99 123,99 283,126 65,11 66,11 173,-32 98,-39 112,-42 164,-36 154,18 175,19 168,8 -10,-16 21,-82 80,-172 27,-41 72,-130 100,-196 29,-67 75,-155 102,-197 45,-66 52,-83 59,-148 8,-71 9,-74 33,-72 14,2 80,-2 148,-8 68,-6 125,-9 128,-6 3,2 -12,31 -32,63 -27,44 -55,71 -110,108 -61,42 -75,57 -90,95 -9,25 -48,126 -86,224 -39,98 -68,180 -66,181 1,2 23,11 48,20 52,20 51,21 100,-74 16,-30 51,-89 79,-129 49,-74 52,-76 168,-135 l 118,-61 5,-86 c 8,-130 24,-150 170,-204 l 115,-42 85,45 c 121,64 122,65 149,115 l 25,45 -42,56 -43,56 h 109 110 l 85,-93 c 83,-90 88,-94 231,-165 118,-58 146,-76 142,-90 -2,-9 -7,-44 -11,-76 l -7,-59 88,-88 88,-89 -34,-35 c -19,-19 -37,-35 -42,-35 -23,0 -402,177 -515,241 l -132,74 -223,-12 c -123,-7 -242,-15 -264,-18 l -41,-6 4,-92 c 2,-51 6,-102 8,-113 3,-15 56,-55 168,-128 132,-86 197,-120 340,-180 154,-64 447,-221 463,-247 3,-5 0,-55 -6,-111 -11,-94 -17,-112 -64,-200 -28,-54 -54,-98 -59,-98 -4,0 -43,24 -87,53 -55,37 -134,110 -262,243 l -183,189 -51,1 c -49,0 -55,3 -207,123 l -157,122 -72,-3 -72,-3 -21,-85 -21,-85 -35,3 c -64,6 -69,10 -70,55 0,23 -3,50 -7,59 -4,9 -135,112 -292,228 -157,116 -284,214 -283,216 0,3 30,38 66,78 63,70 68,74 146,96 45,12 81,26 81,30 0,3 -21,38 -48,76 l -47,69 -54,3 c -49,3 -65,11 -172,85 l -119,81 -115,-28 -115,-28 -72,58 c -39,33 -106,88 -147,122 l -76,64 -97,-6 c -147,-8 -290,14 -423,64 l -110,42 -135,-12 -135,-12 -145,-102 -145,-102 -135,-23 c -123,-20 -141,-26 -205,-66 -38,-24 -104,-53 -145,-65 -70,-20 -77,-25 -115,-76 l -40,-55 -126,6 -125,6 -135,-121 c -86,-78 -136,-131 -141,-148 -4,-15 -23,-99 -44,-188 l -37,-160 -132,-140 c -128,-135 -132,-141 -148,-206 -10,-39 -17,-107 -17,-162 0,-91 2,-101 50,-221 64,-161 146,-325 328,-658 l 147,-267 57,-35 c 54,-32 67,-35 166,-41 l 107,-7 138,-109 c 97,-75 147,-108 165,-108 15,0 117,-7 227,-15 110,-8 205,-15 210,-15 6,0 26,-25 45,-56 l 34,-56 52,7 52,6 92,-107 93,-106 41,5 c 23,3 59,9 82,12 l 40,7 26,-179 25,-178 -63,-89 c -35,-49 -97,-118 -137,-153 l -74,-64 29,-167 c 15,-93 39,-302 52,-470 25,-302 25,-302 5,-372 -38,-137 -38,-137 -169,-224 l -119,-79 -143,-426 -142,-426 44,-217 44,-217 -28,-187 -28,-188 -88,-115 -88,-116 -7,-114 c -5,-77 -15,-137 -30,-182 l -23,-67 88,-26 88,-26 100,45 99,45 h 124 124 l 208,-67 209,-67 131,66 c 73,37 230,125 349,196 l 217,129 107,11 c 59,7 111,17 115,23 3,6 12,84 20,172 l 13,161 57,66 58,67 98,12 c 157,20 163,22 262,105 l 92,76 h 78 78 l 279,250 c 314,282 288,245 319,450 9,58 26,153 39,212 23,106 24,108 131,266 l 107,159 67,7 c 36,3 83,6 105,6 24,0 81,19 155,51 98,44 150,77 341,217 l 226,165 74,126 c 133,227 180,309 180,318 0,5 -34,21 -75,36 l -75,26 -38,-40 -37,-40 -93,75 c -117,95 -111,91 -120,65 -6,-14 -12,21 -20,111 -8,88 -9,138 -2,150 23,44 12,74 -53,142 -73,75 -113,151 -182,338 -43,116 -47,137 -61,291 -12,138 -12,177 -1,230 8,43 11,99 6,169 -6,109 -2,444 7,516 l 5,41 75,-17 c 41,-10 78,-21 81,-24 4,-4 -4,-109 -18,-234 l -25,-227 48,-104 48,-103 v -177 c 0,-268 18,-395 80,-579 l 52,-152 121,-153 c 66,-83 121,-154 123,-155 1,-2 27,15 57,37 53,41 54,41 143,41 l 89,1 285,315 285,315 17,82 c 9,45 17,89 18,98 0,18 -61,105 -203,289 -104,134 -110,137 -193,77 -30,-21 -58,-36 -62,-33 -3,4 -11,47 -18,97 -10,75 -20,103 -56,167 -36,63 -48,76 -65,74 -15,-2 -28,6 -39,23 -14,21 -15,40 -10,113 4,48 13,114 19,146 12,59 12,60 75,94 35,19 64,33 66,31 10,-14 110,-299 128,-368 l 23,-84 135,-116 c 74,-64 207,-185 295,-270 l 159,-154 44,-141 c 25,-77 59,-211 76,-296 l 32,-155 69,-27 70,-26 -3,-199 c -2,-109 -15,-373 -28,-587 -14,-214 -24,-390 -22,-391 2,-1 22,-12 46,-24 23,-12 42,-26 42,-31 0,-31 -108,-393 -166,-556 C 12101,3597 11756,2978 11303,2412 10364,1240 9034,438 7565,156 7166,80 6815,48 6375,48 5915,48 5558,82 5144,165 l -162,32 -95,99 c -52,55 -105,112 -118,127 -25,29 -40,34 -1434,469 l -260,81 -170,112 C 2178,1563 1567,2175 1087,2906 l -106,161 -52,368 c -51,367 -52,368 -89,434 -21,36 -50,109 -66,160 l -28,94 17,136 c 12,99 21,139 33,146 8,6 43,28 77,50 l 61,40 -2,55 c -1,30 -5,105 -8,165 l -5,110 105,77 106,78 v 107 108 l 241,315 c 132,173 244,319 249,324 6,6 46,-2 102,-19 l 93,-27 39,44 c 25,27 141,231 301,528 l 261,484 144,29 144,29 41,46 c 80,91 77,84 65,157 -9,53 -28,100 -98,230 l -87,162 -120,75 -120,75 -3,185 -2,184 -178,95 -177,94 2,244 3,244 40,74 41,74 -40,66 c -38,63 -46,70 -148,127 l -108,61 -24,105 -24,105 17,182 c 10,100 14,188 9,196 -12,20 -224,297 -227,297 -2,0 -72,-27 -155,-60 -148,-58 -155,-60 -247,-60 -52,0 -94,2 -94,5 0,11 141,215 242,350 332,445 743,865 1177,1203 185,144 174,139 301,141 85,2 151,-5 290,-30 l 181,-32 37,36 c 22,21 47,62 60,97 18,46 43,81 101,142 l 77,81 83,5 c 72,4 91,9 139,38 66,40 192,90 259,103 27,6 181,20 343,32 l 295,21 31,30 c 17,16 53,56 80,89 48,58 50,59 99,59 69,-1 194,-18 227,-31 15,-6 29,-22 33,-37 3,-14 16,-39 27,-55 16,-22 19,-39 16,-77 -5,-44 -3,-48 12,-40 10,5 62,56 115,112 87,93 105,119 184,268 l 88,165 69,7 c 38,4 103,10 145,13 l 76,6 46,82 47,82 -43,6 -42,6 50,3 c 208,12 399,17 505,14 69,-2 153,-4 187,-4 z M 223,7247 c 37,-149 87,-376 111,-503 l 44,-231 -8,-219 -8,-219 94,-171 c 52,-93 94,-175 94,-182 0,-6 -21,-85 -46,-174 l -46,-163 -11,-300 -10,-301 61,-174 c 64,-181 87,-284 156,-696 l 32,-192 60,-98 c 45,-74 74,-140 120,-276 34,-99 58,-176 53,-171 -14,15 -137,240 -207,380 -346,692 -555,1420 -637,2218 -43,416 -37,982 15,1400 23,178 51,345 59,345 3,0 37,-123 74,-273 z"
       id="path4"
       style="fill:#008000" />
    <path
       d="m 8225,11360 10,-130 -85,-97 c -59,-67 -95,-118 -113,-162 -15,-35 -26,-65 -24,-67 4,-5 461,17 466,22 7,6 -39,152 -79,254 -21,52 -43,131 -50,175 -7,44 -16,86 -20,94 -7,13 -78,40 -105,41 -7,0 -7,-42 0,-130 z"
       id="path6"
       style="fill:#008000" />
    <path
       d="m 9968,3259 -137,-110 -163,-11 -163,-11 -87,-66 c -85,-64 -88,-68 -118,-146 -30,-77 -36,-84 -136,-173 -106,-95 -138,-112 -206,-112 -42,0 -45,-5 -22,-38 15,-21 13,-25 -45,-90 l -61,-67 v -82 c 0,-83 0,-83 26,-83 33,0 335,30 350,35 6,2 139,146 295,320 156,175 302,338 324,362 37,41 46,45 110,55 69,11 71,11 153,92 45,44 82,85 82,91 0,17 -51,145 -58,145 -4,-1 -69,-50 -144,-111 z"
       id="path8"
       style="fill:#008000" />
  </g>
  <path
     style="fill:#000080;stroke:#000080;stroke-width:0.840651"
     d="m 74.627863,333.50453 c -9.291755,1.96275 -27.471795,4.53829 -39.637345,5.61523 l -12.566942,1.11245 -7.473474,-4.72262 -7.473495,-4.7226 -13.5145646,-0.72128 c -7.4330134,-0.39672 -28.7651814,-1.25962 -47.4048124,-1.91757 -32.542827,-1.14875 -34.219005,-1.3037 -42.15971,-3.89777 -11.28199,-3.68564 -32.21074,-11.82951 -41.39442,-16.10752 -27.52645,-12.82265 -57.68343,-32.47775 -82.19897,-53.57399 l -6.62098,-5.69754 -8.2071,-18.26566 c -6.42426,-14.29779 -8.89106,-19.01284 -11.3556,-21.7052 -6.41751,-7.01073 -8.23809,-10.45626 -9.26244,-17.52964 -0.51265,-3.53999 -0.82628,-6.81314 -0.69693,-7.27364 0.12933,-0.46055 1.54989,-2.4169 3.15679,-4.34741 l 2.92163,-3.5101 -2.98166,-8.21573 -2.98165,-8.21579 4.23845,-5.36131 4.23844,-5.36129 -1.59245,-5.50401 -1.59247,-5.50405 7.87766,-20.03099 c 4.3327,-11.01704 8.27491,-20.135447 8.76045,-20.263107 0.48554,-0.12768 2.82346,-0.17877 5.19538,-0.11359 3.34393,0.0919 4.50952,-0.16762 5.18924,-1.155459 1.21644,-1.767839 4.43084,-14.632033 9.79645,-39.20585 2.51041,-11.497415 4.88447,-21.428789 5.27567,-22.069729 0.39121,-0.64092 3.63365,-2.606479 7.2054,-4.367878 6.63213,-3.270628 7.41963,-4.141258 9.60379,-10.617754 0.9386,-2.783139 -1.64749,-7.060767 -9.34664,-15.4601626 -6.34252,-6.9193465 -6.50474,-7.0272464 -14.03643,-9.3374052 l -7.61976,-2.3371688 -2.73016,-9.4362754 -2.73016,-9.436265 -10.51368,-2.392409 -10.51367,-2.392409 -3.53518,-12.606443 c -3.37413,-12.032214 -3.48649,-12.797064 -2.46631,-16.791322 l 1.06886,-4.184877 -3.42585,-3.067559 c -2.48315,-2.223419 -5.1237,-3.485368 -9.59579,-4.585888 -6.47281,-1.592879 -6.63308,-1.735269 -10.67078,-9.479625 -0.69611,-1.335149 -2.09707,-6.770216 -3.11324,-12.077914 l -1.84761,-9.65037 -8.46196,-6.33723 -8.46194,-6.33724 -3.70177,2.82474 c -8.1415,6.2126 -12.02611,8.48811 -15.80653,9.25908 l -3.86908,0.78905 3.70995,-10.62452 c 7.31572,-20.95071 16.62458,-41.15653 27.6308,-59.97551 6.95431,-11.89078 17.66094,-27.76169 22.94708,-34.01542 3.34288,-3.95478 4.01929,-4.37381 9.39307,-5.81889 3.18493,-0.85651 9.99328,-1.95892 15.12967,-2.4499 10.76446,-1.02895 10.93751,-1.14978 12.36727,-8.63588 0.44007,-2.30417 1.95516,-6.55158 3.36683,-9.43866 2.28621,-4.6756 2.92255,-5.34661 5.82301,-6.14033 2.04053,-0.55839 5.52476,-2.77554 9.33201,-5.93827 7.76768,-6.4527 10.64288,-7.89352 27.79428,-13.9282 l 14.12043,-4.96825 3.21535,-6.02353 3.21537,-6.02353 4.59365,-0.71885 c 2.52649,-0.39537 5.62846,-0.79525 6.89326,-0.88862 2.87094,-0.21196 6.96226,3.51614 8.07342,7.35668 0.44348,1.53279 1.1344,2.69712 1.53539,2.58739 2.05547,-0.56249 8.50838,-15.82668 10.33658,-24.45087 2.11145,-9.9605 2.52777,-10.51804 9.22148,-12.3498 6.09372,-1.66757 7.4401,-2.92102 8.66448,-8.06639 0.91104,-3.82861 1.68076,-5.15701 3.52574,-6.08485 3.37659,-1.6981 33.060071,-9.71816 32.90091,-8.88938 -1.609991,8.38393 -1.687582,11.41403 -0.45045,17.59221 l 1.367688,6.83021 3.058703,0.37627 c 1.682276,0.20695 4.271198,0.3073 5.753143,0.22299 2.66638,-0.15169 2.6919,-0.20086 2.449124,-4.72015 -0.152981,-2.84797 0.381732,-5.77018 1.420672,-7.7639 l 1.665988,-3.19703 15.234279,2.37635 c 8.378866,1.30698 19.41056,3.10196 24.514846,3.98884 l 9.280588,1.61247 13.34081314,-4.89662 13.34082386,-4.89661 2.65766,-4.63942 2.65765,-4.63943 22.312488,3.98095 22.312499,3.98094 8.565173,-2.3439 8.565162,-2.34389 9.603156,2.73941 c 10.576926,3.01722 31.344544,10.39045 41.440544,14.71288 9.46735,4.05329 29.4761,13.97766 29.19546,14.48099 -0.42506,0.76231 -22.05927,-1.583 -33.47637,-3.6291 -6.07708,-1.08908 -14.10685,-3.04341 -17.84395,-4.34299 l -6.79478,-2.36284 -19.376943,3.65181 -19.376917,3.65181 -3.087381,5.45567 c -1.6981,3.00064 -2.929895,6.00019 -2.737369,6.66564 0.192538,0.66547 1.777491,3.0952 3.522068,5.3994 l 3.171973,4.18946 3.730552,-1.02088 3.730583,-1.02089 2.210923,5.6376 c 1.216022,3.10067 2.108593,5.82114 1.983508,6.04549 -0.125085,0.22435 -2.800647,-0.28024 -5.945639,-1.12129 -3.145044,-0.84105 -6.202339,-1.39408 -6.794016,-1.22894 -0.591678,0.16504 -1.707612,3.12398 -2.479899,6.57522 -2.253276,10.06967 -1.8663,9.58434 -8.207131,10.29314 -4.19732,0.46917 -6.082179,0.23798 -7.972713,-0.97798 -2.156817,-1.38719 -2.927973,-1.41183 -5.983623,-0.19116 -1.929258,0.77068 -4.004063,2.19425 -4.610639,3.16347 -1.033747,1.65182 -1.303289,1.7049 -4.302807,0.84726 -4.326569,-1.23708 -10.674187,0.43917 -11.21437,2.96144 -0.638123,2.97948 0.170492,4.24387 2.495857,3.90265 l 2.177978,-0.3196 -1.076933,2.61643 c -0.592326,1.43901 -0.856438,3.37855 -0.586938,4.31006 0.661855,2.28757 -1.712989,2.85849 -10.376049,2.49443 -8.6056135,-0.36166 -14.0581212,1.00237 -16.5926091,4.15085 -1.0251098,1.27343 -3.8625879,6.41754 -6.3055319,11.43133 l -4.441701,9.11601 5.56803,3.18439 c 4.357365,2.492 6.1137766,3.03505 8.0779947,2.49753 3.67955175,-1.00693 11.5816973,-0.65294 12.4931974,0.55963 0.6099186,0.81135 2.5101909,0.57605 8.4292599,-1.04373 l 7.641807,-2.09121 4.160694,-5.82606 c 5.165753,-7.23341 5.867833,-7.88547 11.351702,-10.54274 4.034015,-1.95474 4.976311,-2.09501 10.458041,-1.55691 5.124583,0.50306 6.852533,0.29213 11.56723,-1.41199 l 5.542684,-2.00338 2.691438,2.9475 c 7.168828,7.85085 19.871395,21.24909 21.960276,23.16297 1.288575,1.18058 3.065007,3.64342 3.947685,5.47294 1.871667,3.87939 2.938976,4.00814 12.634858,1.52406 5.87771,-1.50582 5.91077,-1.52858 4.49847,-3.09319 -0.78254,-0.86691 -4.38972,-3.12291 -8.016,-5.01334 -6.326141,-3.2979 -6.876874,-3.81964 -13.592991,-12.87807 l -6.999745,-9.44088 1.874227,-1.3001 c 1.483116,-1.02878 2.138164,-1.04683 3.13909,-0.0865 0.695663,0.6675 3.762016,3.42471 6.814139,6.1271 5.1144,4.52841 6.09453,5.01908 12.50602,6.26112 l 6.95672,1.34766 0.96761,3.34435 c 2.12758,7.35356 4.453,8.85418 14.74488,9.51508 l 4.81287,0.30907 4.38557,-4.45097 c 2.41206,-2.44805 4.76271,-5.77524 5.22368,-7.39378 0.83098,-2.91759 0.81913,-2.95663 -1.38316,-4.5639 -1.22175,-0.89163 -2.28374,-1.83688 -2.36004,-2.10057 -0.0763,-0.26369 1.91222,-1.04068 4.41893,-1.72665 4.51634,-1.23591 4.62425,-1.21205 11.91997,2.63464 4.86077,2.56287 9.65534,4.29221 14.11064,5.08957 l 6.74823,1.20771 0.69108,4.17302 c 0.68994,4.16651 0.70005,4.17815 6.45858,7.46392 5.63951,3.21785 5.74186,3.33188 4.61198,5.13727 -1.10677,1.76847 -1.43725,1.80836 -7.83198,0.94553 -3.67204,-0.49547 -12.31439,-2.10463 -19.20524,-3.57589 l -12.5288,-2.67502 -11.78077,4.13604 c -6.47943,2.27482 -12.4799,4.32736 -13.33438,4.56119 -1.36944,0.37475 -1.37687,1.03595 -0.0628,5.5776 1.14789,3.96746 2.01215,5.53299 3.75795,6.80709 3.35453,2.44825 17.93049,6.45433 31.10157,8.548 6.37145,1.01281 14.7252,2.67972 18.56398,3.70422 l 6.97955,1.86275 1.07623,5.25972 c 0.96922,4.73684 0.29528,12.7701 -1.33625,15.92787 -0.86198,1.66833 -8.43689,-1.52856 -21.40104,-9.03201 -10.72697,-6.2086 -13.05109,-7.23138 -15.13579,-6.6609 -1.83829,0.50306 -5.06462,-0.38264 -12.72179,-3.49243 -7.73329,-3.14071 -10.85326,-3.99228 -12.67326,-3.45907 -4.22669,1.23831 -5.25851,2.58634 -5.07906,6.63541 0.14178,3.19811 -0.16436,3.93941 -1.92026,4.6498 -1.74292,0.70512 -2.27781,0.48968 -3.22868,-1.30039 -0.62686,-1.18003 -1.58166,-2.61424 -2.12178,-3.18713 -0.79258,-0.8407 -25.588902,-11.20545 -33.37024,-13.94865 -1.881825,-0.66341 -1.863276,-0.83621 0.577252,-5.37298 1.623029,-3.01711 3.774437,-5.52749 6.037224,-7.04465 1.933618,-1.29644 3.456116,-2.56289 3.383358,-2.81434 -0.0727,-0.25145 -1.594444,-1.77682 -3.381538,-3.38969 -2.668662,-2.40852 -3.830322,-2.87065 -6.500938,-2.58619 -1.788379,0.19047 -6.558139,-0.70921 -10.599413,-1.9993 l -7.347773,-2.34564 -5.506068,3.01114 -5.506089,3.01117 -4.222862,-1.87207 c -2.322558,-1.02963 -6.40707,-2.85051 -9.076647,-4.04641 l -4.853838,-2.17435 -9.943399,2.32685 c -8.035395,1.88035 -11.239213,2.23446 -16.6960599,1.84536 -4.2934599,-0.30614 -8.3457059,-0.0265 -11.1271555,0.76771 -8.5292666,2.43557 -11.0081066,4.10399 -16.7517586,11.27478 -4.901939,6.11992 -6.098631,7.12144 -11.870704,9.93457 -3.53055,1.72068 -8.156706,4.74105 -10.280352,6.71193 -2.123636,1.97087 -5.094373,4.39642 -6.601623,5.39011 -1.507259,0.99366 -3.430071,3.3879 -4.272926,5.32049 l -1.532462,3.51382 -6.545923,1.47175 -6.545902,1.47173 -5.085161,8.16812 -5.08516,8.16812 0.540636,10.10121 0.540646,10.10121 -4.504536,8.86148 c -2.477503,4.873813 -4.593632,10.174191 -4.702523,11.77862 -0.1089,1.604429 0.606608,5.774777 1.590033,9.267405 1.414359,5.023208 2.559659,7.356886 5.480394,11.167034 4.81676,6.283507 16.485929,19.091621 28.851142,31.667114 11.384307,11.577914 13.01695,12.357214 22.602184,10.788695 5.404386,-0.88437 6.343998,-0.74359 12.734843,1.908119 9.594323,3.980898 10.5266243,4.075348 20.2768487,2.054239 13.9966943,-2.901349 14.7894743,-2.911329 17.6085573,-0.22159 2.213956,2.112379 2.733976,2.236149 4.918216,1.170539 2.265861,-1.105449 2.915706,-0.887449 8.986594,3.015149 l 6.544135,4.206768 3.715313,-1.66508 c 2.043413,-0.915789 3.834847,-1.605199 3.980938,-1.532019 0.146113,0.0732 1.958285,3.852868 4.027065,8.399316 l 3.76142,8.2662357 -1.081324,3.14863842 C 55.852403,1.2030522 53.747542,5.68038 51.769669,9.420928 l -3.596141,6.801017 3.705319,8.019805 c 4.290478,9.286316 13.05917,31.360214 14.671968,36.934532 1.332645,4.606017 1.094228,10.689844 -0.543073,13.858223 -0.66093,1.278999 -2.922174,4.267617 -5.024916,6.641356 l -3.823227,4.315918 -0.976968,24.155271 -0.976999,24.15522 5.518541,10.72178 5.518541,10.72177 1.316193,9.81921 c 1.308821,9.7641 1.300811,9.85838 -1.4268,16.80158 -2.645065,6.73317 -2.698183,7.23101 -1.488279,13.94764 0.69008,3.83088 1.158462,8.09818 1.040842,9.48295 -0.316511,3.72649 -0.17953,3.85703 4.337839,4.13374 5.481452,0.33575 6.282849,0.0577 10.689003,-3.70802 3.072759,-2.62615 4.994696,-3.54375 10.717352,-5.11678 5.953156,-1.63638 8.633956,-1.84648 18.327066,-1.43623 l 11.3539,0.48054 4.53246,-4.04227 c 2.49286,-2.2233 9.37844,-9.01852 15.30136,-15.10053 9.17836,-9.4249 11.46125,-11.33933 15.45631,-12.96162 2.57809,-1.04687 5.01334,-2.37118 5.41169,-2.94289 0.40424,-0.58022 -0.0529,-4.66592 -1.03484,-9.24719 -1.71689,-8.01082 -1.70889,-8.31308 0.33183,-12.60207 1.9716,-4.14357 2.39382,-4.51328 7.39816,-6.47706 6.16419,-2.41894 6.87251,-2.99235 11.62518,-9.41104 3.08652,-4.16849 4.07769,-4.94579 7.50096,-5.88258 l 3.94444,-1.07942 9.9819,-15.8305 c 5.49005,-8.706746 10.22887,-17.069592 10.53066,-18.584071 0.30182,-1.514519 0.0569,-7.099966 -0.54444,-12.412164 -1.43882,-12.712433 -1.2548,-14.941632 2.08572,-25.262817 l 2.82734,-8.735765 5.74905,-2.202949 c 7.85682,-3.010599 13.53178,-8.068246 24.61355,-21.936109 l 9.06805,-11.3479042 3.28839,-13.0822234 c 1.80857,-7.1952064 3.18863,-13.4268634 3.06676,-13.8481234 -0.22531,-0.778719 -6.70149,-1.803069 -8.42229,-1.332169 -0.5185,0.14189 -1.52936,1.23602 -2.24638,2.431379 l -1.30368,2.173409 -7.00419,-2.739019 -7.00417,-2.739028 -2.0426,-7.462767 -2.04258,-7.462776 -5.0116,-3.710368 c -7.57388,-5.607407 -14.07421,-13.498863 -18.53901,-22.506588 -2.50568,-5.055098 -13.6644,-42.943437 -14.78092,-50.187137 l -0.62468,-4.05277 3.07554,-0.26261 c 1.69152,-0.14444 3.48749,-0.0388 3.99106,0.2347 0.52933,0.28749 1.81235,5.52765 3.04144,12.42167 l 2.12591,11.924342 3.26358,3.474758 c 2.96694,3.158908 3.76686,4.885498 8.79999,18.99432 5.08505,14.254313 5.9828,16.180802 11.01162,23.630508 4.96852,7.360287 6.25048,8.666856 13.85181,14.117583 4.60712,3.303648 8.5332,6.096987 8.72466,6.207427 0.19144,0.11044 1.46218,-1.121779 2.82386,-2.738289 1.92115,-2.280698 3.47541,-3.213858 6.93809,-4.165657 l 4.4624,-1.22635 9.89124,-20.12668 c 7.89942,-16.073791 9.87877,-20.880159 9.82957,-23.868547 -0.11317,-6.875047 -0.66203,-7.710126 -9.59313,-14.595663 -12.83571,-9.895832 -14.10015,-10.297872 -17.82687,-5.668332 -2.05641,2.554574 -2.00532,2.590744 -4.91101,-3.47503 -1.97746,-4.12808 -7.0919,-9.26493 -9.58958,-9.63168 -1.7653,-0.25921 -2.18607,-0.90098 -3.38478,-5.16282 -2.25208,-8.00648 -2.18624,-10.85749 0.31324,-13.57313 1.21805,-1.32336 2.40677,-2.45869 2.64168,-2.52298 0.2349,-0.0643 3.6728,4.64721 7.63975,10.46997 l 7.21272,10.58683 6.16059,2.88399 c 3.3883,1.58619 11.97663,5.92988 19.08516,9.6526 l 12.92465,6.768582 5.22283,8.479926 c 2.87257,4.663957 6.56924,11.037624 8.21482,14.163702 1.6456,3.126079 3.08844,5.714357 3.20632,5.751737 0.11792,0.0374 1.83537,0.23922 3.81658,0.44855 l 3.60222,0.38063 3.5551,13.307623 c 1.95534,7.319196 5.3262,21.047799 7.49084,30.508035 l 3.9357,17.2003308 2.61344,0.6627797 c 1.43741,0.3644898 2.69062,0.9208895 2.78493,1.2363594 0.0965,0.3149298 0.0983,7.1435263 0.009,15.1734021 C 338.62272,150.72132 250.7664,274.35295 120.25326,320.71359 110.10172,324.31963 85.626016,331.18132 74.628336,333.50453 Z M 201.30404,175.76057 c 8.37777,-2.99418 6.5752,-0.45613 20.46526,-28.81546 9.52601,-19.44924 10.42347,-20.94133 13.44017,-22.34555 2.41501,-1.12416 4.02213,-2.83111 6.35436,-6.74931 1.71701,-2.88457 2.98113,-5.73078 2.8092,-6.32505 -0.4889,-1.68978 -4.72412,-6.8971 -5.44834,-6.69892 -0.35753,0.0978 -3.10942,3.56006 -6.11528,7.69385 l -5.46516,7.5159 -8.26698,2.88301 c -8.18825,2.85556 -8.29747,2.92607 -11.46649,7.40075 -2.14993,3.0357 -3.48103,6.20266 -4.05765,9.65409 -1.12045,6.70627 -7.46309,16.48609 -12.04241,18.56834 -2.62943,1.19562 -2.96929,1.6446 -2.21176,2.92189 0.59625,1.00532 0.29336,2.89995 -0.90734,5.67527 -1.51871,3.51042 -1.61881,4.80063 -0.63597,8.19758 1.35938,4.69844 1.94405,5.19606 4.57709,3.89556 1.07058,-0.52874 5.10765,-2.09112 8.9713,-3.47195 z M 39.044636,-259.44904 c 4.826168,-1.86649 4.969041,-1.27379 -2.973771,-12.33715 -2.642206,-3.68024 -5.545512,-8.31043 -6.451788,-10.28932 -1.685022,-3.67929 -3.823526,-5.5367 -5.763416,-5.00584 -0.599255,0.16399 -1.770539,0.23052 -2.602917,0.14787 -1.375368,-0.13657 -1.278035,0.46716 1.067206,6.61845 l 2.580656,6.76869 -2.70462,6.1217 c -2.550559,5.77306 -4.364079,12.3597 -3.871616,14.06179 0.2163,0.7476 11.999274,-2.71343 20.720266,-6.08619 z"
     id="path316" />
  <path
     style="fill:#000080;stroke:#000080;stroke-width:0.840651"
     d="m -245.95375,228.21783 c -40.67428,-44.46531 -67.70123,-95.29717 -81.64511,-153.556825 -2.21247,-9.244056 -4.17481,-17.945051 -4.36077,-19.33556 -0.18593,-1.39051 -0.96956,-6.986957 -1.74137,-12.436554 -0.77182,-5.449597 -1.27267,-9.833265 -1.11299,-9.741485 0.61811,0.35527 13.15439,22.623488 18.87035,33.519453 5.33261,10.165185 6.41753,12.902313 9.61162,24.248817 l 3.60046,12.790224 7.1431,7.38477 7.14311,7.38476 0.26154,9.57229 c 0.22056,8.07332 0.84765,11.94265 4.00445,24.70904 l 3.74293,15.13681 6.65962,9.97078 c 4.12052,6.16922 9.70118,16.13273 14.63717,26.13263 6.90061,13.98005 8.50797,16.66537 11.90648,19.89138 4.19077,3.97804 11.50895,13.3924 11.05014,14.21527 -0.15159,0.27188 -4.54843,-4.1767 -9.77077,-9.88579 z"
     id="path318" />
</svg>
